<svg width="77" height="66" viewBox="0 0 77 66" fill="none" xmlns="http://www.w3.org/2000/svg">
<path d="M75.8599 15.6878L63.1676 0.457109C63.0484 0.314509 62.8992 0.199808 62.7308 0.121093C62.5624 0.0423775 62.3787 0.00156316 62.1928 0.0015266H13.9622C13.7762 0.00132873 13.5925 0.0420387 13.424 0.120771C13.2556 0.199503 13.1065 0.314329 12.9874 0.457109L0.295139 15.6878C0.140313 15.8728 0.0415662 16.0982 0.0105251 16.3375C-0.020516 16.5767 0.0174408 16.8198 0.119927 17.0382C0.222504 17.2566 0.385088 17.4413 0.588699 17.5707C0.792309 17.7002 1.02854 17.769 1.26982 17.7693H74.8849C75.1262 17.769 75.3624 17.7002 75.566 17.5707C75.7696 17.4413 75.9322 17.2566 76.0348 17.0382C76.137 16.8198 76.1748 16.5767 76.1438 16.3376C76.1128 16.0984 76.0143 15.873 75.8599 15.6878ZM3.97981 15.2309L14.5562 2.53869H61.5976L72.174 15.2309H3.97981Z" fill="#CBA15E"/>
<path d="M39.2516 0.783102C39.1554 0.551249 38.9927 0.353108 38.7839 0.213723C38.5752 0.0743369 38.3298 -3.70989e-05 38.0788 1.38827e-08H13.9636C13.5092 1.38827e-08 13.0903 0.242442 12.8632 0.637191C12.6361 1.03194 12.6373 1.51549 12.8671 1.9089L21.7516 17.1396C21.8494 17.3073 21.9844 17.4502 22.1461 17.5576C22.3078 17.665 22.492 17.7338 22.6845 17.759C22.7391 17.7653 22.7937 17.7691 22.8469 17.7691C23.0138 17.7692 23.179 17.7364 23.3332 17.6726C23.4874 17.6088 23.6276 17.5152 23.7456 17.3972L38.9763 2.16651C39.1539 1.98902 39.2749 1.76284 39.3239 1.51658C39.3729 1.27032 39.3477 1.01506 39.2516 0.783102ZM23.1134 14.4387L16.172 2.5385H35.0136L23.1134 14.4387Z" fill="#CBA15E"/>
<path d="M76.0211 15.9363C75.9164 15.7241 75.7543 15.5454 75.5534 15.4205C75.3524 15.2955 75.1205 15.2293 74.8839 15.2293H1.26879C1.03219 15.2295 0.800334 15.2958 0.599389 15.4207C0.398445 15.5456 0.236403 15.7242 0.131544 15.9363C0.0268216 16.1484 -0.0165533 16.3856 0.0063106 16.621C0.0291744 16.8565 0.117368 17.0809 0.260946 17.2689L37.0686 65.4996C37.3085 65.8143 37.6816 65.9996 38.0776 65.9996C38.4735 65.9996 38.8467 65.8143 39.0841 65.4996L75.8917 17.2689C76.0352 17.0809 76.1234 16.8565 76.1463 16.621C76.1691 16.3856 76.1258 16.1484 76.0211 15.9363ZM38.0776 62.6388L3.83511 17.7691H72.3201L38.0776 62.6388Z" fill="#CBA15E"/>
<path d="M39.2887 64.3472L24.058 16.1166C23.9767 15.8592 23.8154 15.6345 23.5977 15.4749C23.38 15.3154 23.1171 15.2294 22.8471 15.2294H1.27026C1.03365 15.2295 0.801798 15.2958 0.600854 15.4207C0.39991 15.5456 0.237868 15.7242 0.133009 15.9363C0.0282864 16.1485 -0.0150884 16.3856 0.00777544 16.6211C0.0306393 16.8566 0.118832 17.081 0.262411 17.269L37.07 65.4996C37.1883 65.6552 37.3409 65.7812 37.5159 65.868C37.691 65.9547 37.8837 65.9998 38.079 65.9997C38.2826 66.0004 38.4832 65.9506 38.6628 65.855C38.9279 65.7175 39.136 65.4909 39.2505 65.2151C39.365 64.9394 39.3785 64.632 39.2887 64.3472ZM3.83538 17.7692H21.9168L34.6801 58.1865L3.83538 17.7692ZM63.2936 0.637191C63.1826 0.443456 63.0224 0.282493 62.8291 0.170599C62.6359 0.0587044 62.4165 -0.000147993 62.1932 2.8974e-07H38.0779C37.8268 -0.000169359 37.5813 0.074164 37.3725 0.21359C37.1637 0.353016 37.0009 0.551265 36.9048 0.783238C36.8088 1.01521 36.7837 1.27048 36.8327 1.51671C36.8818 1.76295 37.0029 1.9891 37.1805 2.16651L52.4112 17.3972C52.5289 17.5153 52.6688 17.6089 52.8228 17.6727C52.9768 17.7365 53.1419 17.7693 53.3086 17.7691C53.3632 17.7691 53.4177 17.7652 53.4723 17.759C53.6648 17.734 53.849 17.6651 54.0108 17.5578C54.1725 17.4504 54.3075 17.3073 54.4052 17.1396L63.2897 1.9089C63.4019 1.71591 63.4614 1.49679 63.4621 1.27356C63.4627 1.05033 63.4046 0.830854 63.2936 0.637191ZM53.042 14.4387L41.1417 2.5385H59.9833L53.042 14.4387Z" fill="#CBA15E"/>
<path d="M76.0235 15.9389C75.9188 15.7267 75.7568 15.5481 75.5558 15.4231C75.3549 15.2982 75.1229 15.232 74.8863 15.232H53.3094C53.0394 15.2318 52.7765 15.3177 52.5587 15.4773C52.3409 15.6369 52.1797 15.8617 52.0985 16.1192L36.8678 64.3499C36.7783 64.6347 36.7919 64.9419 36.9063 65.2177C37.0208 65.4934 37.2287 65.72 37.4936 65.8577C37.6739 65.9514 37.8742 66.0002 38.0774 65.9999C38.2724 65.9997 38.4648 65.9547 38.6397 65.8685C38.8146 65.7822 38.9674 65.657 39.0864 65.5024L75.894 17.2718C76.0376 17.0837 76.1258 16.8593 76.1487 16.6238C76.1716 16.3883 76.1282 16.1511 76.0235 15.9389ZM41.4753 58.1863L54.2386 17.769H72.32L41.4753 58.1863Z" fill="#CBA15E"/>
</svg>
