<svg width="66" height="66" viewBox="0 0 66 66" fill="none" xmlns="http://www.w3.org/2000/svg">
<path d="M64.9819 13.1973H59.608C59.765 12.9775 59.9059 12.7466 60.0295 12.5064C60.3813 11.8168 60.5864 11.0617 60.6318 10.2888C60.6773 9.5159 60.562 8.74195 60.2934 8.01585L58.6649 3.63609C58.3949 2.91104 57.9775 2.24994 57.439 1.69459C56.9006 1.13924 56.2529 0.701709 55.5369 0.409664C54.8195 0.118834 54.0497 -0.0198659 53.276 0.00233795C52.5024 0.0245418 51.7417 0.207166 51.0422 0.538659L38.1545 6.66334C37.4965 6.19154 36.7072 5.93812 35.8977 5.93878H30.1028C29.2931 5.93829 28.5037 6.19188 27.8455 6.66386L14.9583 0.538143C14.2587 0.206862 13.4981 0.0243978 12.7244 0.00228343C11.9508 -0.019831 11.181 0.118885 10.4637 0.409664C9.019 0.997107 7.87843 2.17328 7.3356 3.63557L5.70711 8.01624C5.43842 8.7423 5.32319 9.51624 5.3687 10.2891C5.41421 11.062 5.61947 11.8171 5.9715 12.5066C6.09486 12.7469 6.23575 12.9777 6.39303 13.1973H1.01863C0.884863 13.1973 0.752408 13.2237 0.628824 13.2749C0.505239 13.3261 0.392946 13.4011 0.298356 13.4958C0.203766 13.5904 0.128733 13.7028 0.0775407 13.8265C0.0263485 13.9501 -1.07136e-09 14.0827 0 14.2165L0 21.5546C6.83454e-05 21.825 0.107409 22.0842 0.298424 22.2753C0.489438 22.4665 0.74849 22.5739 1.01863 22.574C1.28878 22.5739 1.54787 22.4665 1.73891 22.2754C1.92995 22.0842 2.03731 21.825 2.03738 21.5546V15.2353H9.11245C9.22589 15.2752 9.34062 15.3119 9.45689 15.3442L18.0086 17.6999C16.1064 20.6187 14.4309 23.6794 12.9968 26.8549H2.03712V25.6315C2.03709 25.4977 2.01071 25.3652 1.9595 25.2416C1.9083 25.118 1.83325 25.0056 1.73867 24.911C1.64408 24.8164 1.5318 24.7414 1.40823 24.6902C1.28466 24.639 1.15223 24.6127 1.0185 24.6127C0.884762 24.6127 0.752335 24.6391 0.628774 24.6903C0.505214 24.7415 0.39294 24.8165 0.298364 24.9111C0.203788 25.0057 0.128761 25.1181 0.0775679 25.2417C0.0263745 25.3653 1.69273e-05 25.4978 0 25.6317L0 27.8745C6.83454e-05 28.1448 0.107409 28.404 0.298424 28.5952C0.489438 28.7863 0.74849 28.8938 1.01863 28.8938H4.65123V64.9807C4.65122 65.1145 4.67755 65.2471 4.72874 65.3708C4.77992 65.4944 4.85495 65.6068 4.94954 65.7015C5.04413 65.7961 5.15643 65.8712 5.28003 65.9224C5.40362 65.9737 5.53608 66 5.66986 66H60.3307C60.4644 66 60.5969 65.9737 60.7205 65.9224C60.8441 65.8712 60.9564 65.7961 61.051 65.7015C61.1456 65.6068 61.2206 65.4944 61.2718 65.3708C61.323 65.2471 61.3493 65.1145 61.3493 64.9807V59.062C61.3492 58.7917 61.2419 58.5325 61.0509 58.3413C60.8598 58.1502 60.6008 58.0428 60.3307 58.0427C60.1969 58.0426 60.0644 58.069 59.9408 58.1202C59.8172 58.1714 59.7049 58.2465 59.6103 58.3412C59.5157 58.4358 59.4406 58.5482 59.3894 58.6719C59.3382 58.7956 59.3119 58.9281 59.3119 59.062V63.9619H39.1112V29.5207C41.9966 34.9893 43.9498 40.9358 44.8486 47.0795C44.884 47.3217 45.0054 47.5431 45.1905 47.7031C45.3756 47.8631 45.6121 47.951 45.8567 47.9509C46.0144 47.9509 46.1699 47.9143 46.3111 47.8439C46.4522 47.7735 46.5751 47.6712 46.67 47.5452C48.1344 45.6012 49.4959 43.5202 50.725 41.3474C52.7835 42.7502 54.7821 44.3143 56.6785 46.0073C56.8346 46.1465 57.0297 46.2343 57.2374 46.2587C57.4451 46.2832 57.6552 46.243 57.8393 46.1438C58.0234 46.0446 58.1726 45.8911 58.2665 45.7042C58.3604 45.5172 58.3946 45.3059 58.3643 45.0988C57.551 39.5475 56.035 34.0884 53.8858 28.8938H59.3115V54.9846C59.3115 55.1185 59.3378 55.251 59.389 55.3747C59.4402 55.4984 59.5152 55.6107 59.6098 55.7054C59.7044 55.8001 59.8167 55.8751 59.9403 55.9264C60.0639 55.9776 60.1964 56.0039 60.3301 56.0039C60.4639 56.004 60.5964 55.9776 60.72 55.9264C60.8436 55.8752 60.9559 55.8001 61.0505 55.7055C61.1451 55.6108 61.2202 55.4984 61.2713 55.3747C61.3225 55.251 61.3488 55.1185 61.3488 54.9846V28.8938H64.9819C65.1156 28.8938 65.248 28.8674 65.3716 28.8161C65.4951 28.7649 65.6074 28.6898 65.7019 28.5952C65.7965 28.5005 65.8714 28.3881 65.9226 28.2645C65.9737 28.1408 66 28.0083 66 27.8745V14.2165C66.0001 14.0827 65.9739 13.9501 65.9228 13.8264C65.8717 13.7027 65.7967 13.5903 65.7021 13.4957C65.6076 13.401 65.4953 13.3259 65.3717 13.2747C65.2481 13.2235 65.1156 13.1972 64.9819 13.1973ZM51.9159 2.3798C52.8248 1.94844 53.8379 1.91929 54.7699 2.29815C55.7006 2.67662 56.4054 3.40364 56.7554 4.34659L58.3835 8.72584C58.7339 9.66905 58.6739 10.6819 58.2157 11.5773C57.7581 12.4722 56.972 13.1121 56.0031 13.3787L39.7885 17.8457V12.9468C43.4332 10.7137 52.5191 6.1075 54.7804 9.30167C54.8577 9.41092 54.9557 9.50387 55.0689 9.5752C55.182 9.64653 55.3081 9.69486 55.44 9.71742C55.5718 9.73997 55.7068 9.73632 55.8372 9.70666C55.9676 9.677 56.0909 9.62192 56.2001 9.54457C56.6593 9.21912 56.7681 8.58266 56.4427 8.12369C54.6974 5.65808 51.0196 5.53825 45.5103 7.76792C43.2408 8.68598 41.1455 9.80656 39.7885 10.5841V9.83184C39.7885 9.28619 39.6752 8.76609 39.4718 8.29396L51.9159 2.3798ZM30.1028 7.97703H35.8977C36.9199 7.97703 37.7511 8.80956 37.7511 9.83197V18.2574C37.7511 19.2803 36.9198 20.1124 35.8977 20.1124H30.1028C29.0806 20.1124 28.2494 19.2803 28.2494 18.2574V9.83197C28.2494 8.80904 29.0807 7.97703 30.1028 7.97703ZM28.3909 26.8548C29.3669 25.2326 30.427 23.6625 31.5667 22.151H34.4328C35.5729 23.6623 36.633 25.2324 37.6087 26.8548H28.3909ZM7.78471 11.5773C7.32644 10.6819 7.2665 9.66905 7.61649 8.72623L9.24549 4.34595C9.59483 3.40377 10.2999 2.67662 11.2304 2.29815C12.162 1.91929 13.1756 1.94857 14.084 2.3798L26.5286 8.295C26.3192 8.78042 26.2114 9.30363 26.2119 9.83236V10.6424C24.8594 9.86358 22.7168 8.70972 20.3894 7.76792C14.8805 5.53825 11.2022 5.65808 9.45689 8.12369C9.13166 8.58266 9.24033 9.21912 9.69963 9.54457C9.80875 9.62197 9.93204 9.67709 10.0625 9.70677C10.1929 9.73645 10.3279 9.74012 10.4597 9.71756C10.5915 9.695 10.7176 9.64666 10.8308 9.5753C10.9439 9.50394 11.0419 9.41096 11.1192 9.30167C13.4017 6.07732 22.6371 10.8007 26.2119 13.0089V17.8457L9.99792 13.3792C9.02854 13.1122 8.24233 12.4722 7.78471 11.5773ZM26.6691 20.0858C27.1761 21.0352 28.0644 21.7512 29.1284 22.0269C24.3644 28.6781 21.0847 36.3206 19.5465 44.3536C18.4547 42.7561 17.4467 41.1027 16.5267 39.4003C16.4598 39.2763 16.3679 39.1675 16.2569 39.0808C16.1458 38.9942 16.018 38.9315 15.8815 38.8968C15.745 38.8621 15.6028 38.8562 15.4638 38.8794C15.3249 38.9025 15.1923 38.9543 15.0744 39.0314C13.378 40.1386 11.7169 41.3529 10.1125 42.6571C11.7647 33.9791 15.1782 25.6115 20.0732 18.2689L26.6691 20.0858ZM6.68848 28.8938H12.1147C9.96569 34.0884 8.44948 39.547 7.63569 45.0988C7.60534 45.3058 7.63941 45.5172 7.73327 45.7042C7.82714 45.8912 7.97625 46.0447 8.16035 46.1439C8.34452 46.2431 8.55473 46.2832 8.76246 46.2588C8.97019 46.2343 9.16537 46.1465 9.32154 46.0073C11.2179 44.3143 13.2165 42.7502 15.2755 41.3474C16.5046 43.5202 17.8658 45.6007 19.3305 47.5452C19.4254 47.6713 19.5483 47.7736 19.6894 47.8441C19.8305 47.9145 19.9861 47.9512 20.1438 47.9513C20.2279 47.9513 20.3124 47.9407 20.3961 47.919C20.5907 47.8693 20.7663 47.7631 20.9007 47.6137C21.0351 47.4644 21.1223 47.2785 21.1514 47.0797C22.0507 40.9356 24.004 34.989 26.8888 29.5202V63.9619H6.68861L6.68848 28.8938ZM28.926 63.9619V28.8938H37.0742V63.9619H28.926ZM50.9258 39.0315C50.8079 38.9546 50.6753 38.903 50.5364 38.88C50.3975 38.857 50.2554 38.8629 50.1189 38.8976C49.9825 38.9323 49.8547 38.9948 49.7436 39.0814C49.6326 39.1679 49.5406 39.2766 49.4736 39.4005C48.5536 41.1029 47.5457 42.7562 46.4538 44.3536C44.9155 36.3201 41.6359 28.6781 36.8713 22.0274C37.9353 21.7523 38.8242 21.0357 39.3312 20.0859L45.9286 18.2684C50.8226 25.6126 54.2361 33.98 55.8883 42.6569C54.2834 41.3529 52.6223 40.1386 50.9258 39.0315ZM63.963 26.8551H53.0041C51.57 23.6797 49.8947 20.619 47.9928 17.7L56.5435 15.3443C56.6598 15.3121 56.7746 15.2753 56.8879 15.2354H63.9631L63.963 26.8551Z" fill="#CBA15E"/>
</svg>
