<svg width="53" height="53" viewBox="0 0 53 53" fill="none" xmlns="http://www.w3.org/2000/svg">
<path d="M22.9279 39.8901C22.8452 39.6734 22.6605 39.5389 22.4567 39.5389H11.961C11.8082 39.5389 11.6617 39.6211 11.5662 39.7556L2.7837 52.0059C2.65632 52.1853 2.62448 52.4394 2.71364 52.6487C2.79644 52.858 2.98113 53 3.17856 53H13.3176C13.464 53 13.6041 52.9253 13.706 52.7907L22.8452 40.5404C22.9789 40.361 23.0107 40.1069 22.9279 39.8901ZM13.0819 51.7892H9.56638L10.821 47.9773C10.8338 47.9399 10.8338 47.9026 10.8338 47.8727L15.6612 44.8007L13.3812 51.3781L13.0819 51.7892ZM4.66884 51.7892L10.165 48.2987L9.01867 51.7892H4.66884ZM8.43275 46.0041L10.1268 47.6335L4.86627 50.9745L8.43275 46.0041ZM16.2026 43.7693L13.0055 40.7422H20.96L16.2026 43.7693ZM16.3809 44.3448L20.6671 41.6167L14.4257 49.9804L16.3809 44.3448ZM12.1967 40.7497L15.7122 44.0832L10.6108 47.327L8.75755 45.5407L12.1967 40.7497ZM50.2115 52.0059L41.4291 39.7481C41.3335 39.6136 41.187 39.5389 41.0342 39.5389H30.5386C30.3348 39.5389 30.1501 39.6809 30.0673 39.8901C29.9845 40.1069 30.0163 40.361 30.1501 40.5404L39.2955 52.7907C39.3974 52.9178 39.5376 53 39.684 53H49.823C50.0205 53 50.2052 52.8655 50.2879 52.6487C50.3707 52.432 50.3453 52.1853 50.2115 52.0059ZM43.9829 51.7892L42.8365 48.2987L48.3327 51.7892H43.9829ZM39.9133 51.7892L39.6076 51.3781L37.3276 44.8007L42.1551 47.8652C42.1551 47.9025 42.1615 47.9399 42.1678 47.9698L43.4225 51.7817H39.9133V51.7892ZM32.0288 40.7422H39.9897L36.7926 43.7693L32.0288 40.7422ZM36.6207 44.3448L38.5759 49.9879L32.3345 41.6242L36.6207 44.3448ZM42.8748 47.6335L44.5688 46.0041L48.1353 50.9745L42.8748 47.6335ZM44.2377 45.5407L42.3844 47.327L37.283 44.0832L40.7986 40.7497L44.2377 45.5407ZM26.3161 41.2654L35.4488 53H26.3161H26.2015H17.54L26.2015 41.2654V41.101L26.2588 41.1832L26.3161 41.101V41.2654ZM13.5914 21.5035C13.4959 21.3839 13.3621 21.3091 13.2157 21.3091L0.516436 21.2568C0.312637 21.2568 0.127944 21.3988 0.0451509 21.6156C-0.0376424 21.8323 -0.00579886 22.0864 0.134313 22.2658L11.0949 36.6015C11.1904 36.7285 11.3305 36.8033 11.477 36.8033L24.6284 36.8556C24.8322 36.8556 25.0169 36.7136 25.0997 36.4968C25.1825 36.2726 25.1443 36.0185 25.0041 35.8391L13.5914 21.5035ZM13.0501 35.1963L16.7949 31.9151L23.0362 35.6373L12.6361 35.5924L13.0501 35.1963ZM16.9668 31.3471L14.3429 24.2166L22.7687 34.8076L16.9668 31.3471ZM52.9564 21.6156C52.8736 21.3988 52.6889 21.2568 52.4852 21.2568L39.7859 21.3091C39.6458 21.3091 39.5057 21.3764 39.4102 21.5035L27.9974 35.8466C27.8573 36.0259 27.8191 36.2801 27.9019 36.5043C27.9847 36.7211 28.1694 36.8631 28.3732 36.8631L41.5246 36.8107C41.6711 36.8107 41.8112 36.736 41.9067 36.6089L52.8673 22.2733C53.001 22.0939 53.0392 21.8323 52.9564 21.6156ZM36.0284 31.3471L30.2265 34.8151L38.6587 24.2166L36.0284 31.3471ZM36.2067 31.9226L39.9452 35.1963L40.3655 35.6074L29.9654 35.6522L36.2067 31.9226ZM41.5946 11.331C41.6074 11.3086 41.6201 11.2936 41.6329 11.2712C41.6456 11.2488 41.6456 11.2263 41.652 11.2039C41.6647 11.1665 41.6774 11.1292 41.6838 11.0918C41.6902 11.0544 41.6902 11.0171 41.6965 10.9797C41.6965 10.9423 41.6965 10.9049 41.6902 10.8676C41.6838 10.8302 41.6774 10.7928 41.6647 10.7555C41.652 10.7181 41.6392 10.6882 41.6201 10.6508C41.601 10.6135 41.5819 10.5836 41.5564 10.5537C41.5437 10.5387 41.5373 10.5163 41.5246 10.5013C41.5119 10.4864 41.4991 10.4864 41.4864 10.4789C41.4736 10.4714 41.4673 10.4565 41.4545 10.4415L26.6855 0.0822169H26.6791C26.66 0.0672684 26.6409 0.0672684 26.6218 0.0597941C26.6027 0.0448456 26.5772 0.0373713 26.5517 0.0298971C26.539 0.0224228 26.5263 0.0224228 26.5135 0.0149485C26.5072 0.00747426 26.5008 0 26.4944 0C26.4753 0 26.4562 0 26.4371 0C26.4116 0 26.3862 0 26.3607 0C26.3479 0 26.3352 0.00747426 26.3161 0.00747426C26.3097 0.00747426 26.3034 0.00747426 26.2906 0.00747426C26.2715 0.0149485 26.2588 0.0224228 26.2397 0.0298971C26.2142 0.0448456 26.1887 0.0523198 26.1633 0.0672684C26.1569 0.0747426 26.1441 0.0747426 26.1378 0.0747426L12.2158 10.449C12.2094 10.4565 12.203 10.464 12.1967 10.4714C12.1903 10.4789 12.1776 10.4789 12.1712 10.4864C12.1521 10.5013 12.1393 10.5312 12.1202 10.5537C12.0948 10.5836 12.0757 10.6135 12.0565 10.6433C12.0374 10.6732 12.0311 10.7106 12.0183 10.748C12.0056 10.7854 11.9929 10.8227 11.9929 10.8601C11.9865 10.8975 11.9865 10.9348 11.9865 10.9722C11.9865 11.0096 11.9865 11.047 11.9929 11.0843C11.9992 11.1217 12.0183 11.1591 12.0311 11.1964C12.0374 11.2263 12.0438 11.2488 12.0565 11.2787C12.0629 11.2936 12.0757 11.3011 12.082 11.316C12.0884 11.3235 12.0884 11.331 12.0884 11.3385L26.0231 31.4143C26.0295 31.4293 26.0486 31.4293 26.055 31.4442C26.0677 31.4592 26.0741 31.4741 26.0868 31.4891C26.1123 31.519 26.1378 31.5264 26.1696 31.5489C26.1887 31.5638 26.2078 31.5788 26.2269 31.5862C26.2906 31.6161 26.3607 31.6386 26.4244 31.6386C26.4881 31.6386 26.5517 31.6161 26.6154 31.5937C26.6345 31.5862 26.6536 31.5713 26.6728 31.5563C26.6982 31.5414 26.7301 31.5264 26.7492 31.504C26.7619 31.4891 26.7683 31.4741 26.781 31.4592C26.7874 31.4442 26.8065 31.4442 26.8129 31.4293L41.5819 11.3534C41.5883 11.3459 41.5883 11.3385 41.5946 11.331ZM20.0047 6.09152L20.8263 7.30983L17.3872 11.9962L13.5022 10.9274L20.0047 6.09152ZM21.4759 8.27401L25.4691 14.2086L18.5144 12.3026L21.4759 8.27401ZM13.5787 11.5702L17.2789 12.5867C17.2853 12.624 17.2916 12.6539 17.3044 12.6838V12.6913L23.0362 25.2032L13.5787 11.5702ZM26.1633 29.471L18.5908 12.9454L26.1633 15.0233V29.471ZM26.1633 14.2684L21.8134 7.80313L26.1633 1.87604V14.2684ZM26.6791 1.97321L30.8634 8.28148L26.6791 14.3954V1.97321ZM31.1882 8.76731L33.6465 12.4745L33.5892 12.6091L27.4752 14.2011L31.1882 8.76731ZM26.6791 29.4336V15.1952C26.7492 15.1952 26.8192 15.1578 26.8702 15.0831L26.9593 14.9485L33.309 13.3042L26.6791 29.4336ZM28.9655 26.6532L34.5891 12.9753L40.0725 11.5552L28.9655 26.6532ZM34.7547 12.3176C34.7483 12.2877 34.7483 12.2578 34.7419 12.2279C34.7355 12.183 34.7101 12.1532 34.691 12.1083C34.6782 12.0859 34.6719 12.056 34.6591 12.0336L31.8505 7.80313L33.0351 6.0691C33.0542 6.0392 33.0669 6.00931 33.0797 5.97941L40.1362 10.9274L34.7547 12.3176Z" fill="#CBA15E" fill-opacity="0.5"/>
</svg>
