<svg width="53" height="53" viewBox="0 0 53 53" fill="none" xmlns="http://www.w3.org/2000/svg">
<path d="M52.9815 13.5786C52.9815 13.5612 52.9877 13.5438 52.9815 13.5351C52.9815 13.5002 52.963 13.4741 52.9569 13.448C52.9446 13.3784 52.9261 13.3088 52.9076 13.2391C52.8891 13.2043 52.8768 13.1695 52.8583 13.1434C52.8214 13.0737 52.7844 13.0215 52.7413 12.978C52.729 12.9606 52.7228 12.9432 52.7105 12.9345L38.2531 0.130563C38.1546 0.0435211 38.0437 0 37.9328 0H15.0549C14.944 0 14.8331 0.0435211 14.7407 0.130563L0.283357 12.9171C0.264877 12.9258 0.258717 12.9519 0.246397 12.9606C0.203278 13.0128 0.160158 13.065 0.129358 13.126C0.110879 13.1608 0.0985588 13.1869 0.080079 13.2217C0.0554393 13.2826 0.0369596 13.3523 0.0246397 13.4306C0.0184798 13.4654 0.00615993 13.4915 0 13.5177C0 13.5351 0.00615993 13.5525 0.00615993 13.5612C0.00615993 13.5873 0 13.596 0 13.6221C0 13.683 0.0184798 13.7266 0.0246397 13.7875C0.0307996 13.831 0.0307996 13.8745 0.0431195 13.9093C0.0739191 14.0138 0.110879 14.1182 0.166318 14.1966C0.166318 14.1966 0.166318 14.1966 0.172478 14.2053C0.178638 14.214 0.178638 14.2227 0.184798 14.2314L26.0565 52.7128C26.0688 52.7302 26.075 52.7476 26.0873 52.765C26.2043 52.9217 26.3522 53 26.5 53H26.5062C26.5062 53 26.5062 53 26.5123 53C26.6602 53 26.808 52.9217 26.925 52.765C26.9374 52.7476 26.9435 52.7302 26.9497 52.7128L52.8214 14.2314C52.8275 14.2227 52.8337 14.214 52.8337 14.2053V14.1966C52.8891 14.1182 52.9261 14.0225 52.9569 13.9093C52.9692 13.8658 52.9692 13.831 52.9754 13.7875C52.9815 13.7353 53 13.683 53 13.6221C52.9877 13.6134 52.9815 13.596 52.9815 13.5786ZM12.1843 4.37822L6.99152 12.7952H2.67957L12.1843 4.37822ZM1.98966 14.4838H6.89912L12.8003 30.5605L1.98966 14.4838ZM14.753 32.3275L8.20502 14.4838H14.753V32.3275ZM14.753 12.7952H8.56846L14.753 2.76794V12.7952ZM37.1197 1.68862L33.6455 8.30383L27.7258 1.68862H37.1197ZM37.5694 13.7701L34.588 23.806L27.3131 2.30662L37.5694 13.7701ZM25.2619 1.68862L19.336 8.30383L15.868 1.68862H25.2619ZM25.6746 2.30662L18.3997 23.806L15.4183 13.7701L25.6746 2.30662ZM15.3505 2.12383L18.8679 8.83478L15.3505 12.7691V2.12383ZM15.3505 15.7372L18.0547 24.8331L15.3505 32.8149V15.7372ZM15.4429 34.5035L18.3627 25.8776L21.6521 36.9407L19.453 40.4659L15.4429 34.5035ZM19.8658 41.0752L21.9109 37.8024L25.268 49.1092L19.8658 41.0752ZM26.4938 38.6467L22.2681 24.72L26.4938 13.126L30.7134 24.72L26.4938 38.6467ZM27.7197 49.1092L31.0768 37.8024L33.1219 41.0752L27.7197 49.1092ZM33.5346 40.4572L31.3355 36.932L34.6188 25.8689L37.5386 34.4948L33.5346 40.4572ZM37.6371 32.8149L34.9329 24.8331L37.6371 15.7372V32.8149ZM37.6371 12.7604L34.1198 8.82608L37.6371 2.11513V12.7604ZM50.3081 12.7952H45.9962L40.8033 4.37822L50.3081 12.7952ZM38.2285 2.76794L44.4192 12.7952H38.2285V2.76794ZM38.2285 14.4838H44.7827L38.2347 32.3275V14.4838H38.2285ZM40.1935 30.5518L46.0886 14.4751H50.998L40.1935 30.5518Z" fill="#CBA15E" fill-opacity="0.5"/>
</svg>
