<svg width="61" height="45" viewBox="0 0 61 45" fill="none" xmlns="http://www.w3.org/2000/svg">
<path d="M60.991 44.4393C60.9639 34.5922 56.563 25.698 48.8929 19.9402L55.8596 12.5094C55.8641 12.5048 55.8641 12.5003 55.8686 12.4957C55.8776 12.4866 55.8821 12.4729 55.8911 12.4638C55.9137 12.4319 55.9362 12.4045 55.9497 12.368C55.9542 12.3544 55.9588 12.3361 55.9633 12.3225C55.9678 12.3133 55.9723 12.3088 55.9768 12.2951C55.9813 12.2769 55.9813 12.2586 55.9858 12.2404C55.9858 12.2313 55.9903 12.2222 55.9903 12.2085C55.9903 12.2039 55.9903 12.1994 55.9903 12.1948C55.9903 12.1538 55.9858 12.1082 55.9768 12.0672C55.9768 12.0626 55.9723 12.0535 55.9723 12.0489C55.9678 12.0398 55.9678 12.0307 55.9633 12.017C55.9542 11.9851 55.9362 11.9578 55.9227 11.9304C55.9182 11.9258 55.9182 11.9167 55.9137 11.9122C55.9092 11.9076 55.9092 11.9076 55.9046 11.9031C55.9001 11.8939 55.8956 11.8894 55.8911 11.8803L48.5998 2.93131C48.5998 2.93131 48.5953 2.93131 48.5953 2.92676C48.5908 2.9222 48.5863 2.91764 48.5818 2.91308C48.5772 2.90852 48.5772 2.90396 48.5727 2.90396C48.5682 2.8994 48.5592 2.89484 48.5547 2.89028C48.5412 2.87661 48.5276 2.86293 48.5141 2.85381C48.5141 2.85381 48.5096 2.85381 48.5096 2.84926C48.5096 2.84926 48.5051 2.8447 48.5006 2.8447C48.4961 2.84014 48.4961 2.84014 48.4916 2.83558C48.4871 2.83102 48.478 2.83102 48.4735 2.82646C48.4645 2.8219 48.4555 2.81278 48.442 2.80823C48.4239 2.79911 48.4059 2.79455 48.3879 2.78543C48.3788 2.78543 48.3743 2.77631 48.3698 2.77631L38.4677 0.0182352C38.4271 0.00455881 38.3865 0 38.346 0H22.645C22.6045 0 22.5639 0.00455881 22.5233 0.0182352L12.6257 2.77631C12.6166 2.78087 12.6076 2.78543 12.5986 2.78999C12.5851 2.79455 12.567 2.79911 12.5535 2.80823C12.54 2.81278 12.531 2.8219 12.5174 2.82646C12.5129 2.83102 12.5039 2.83102 12.4949 2.83558C12.4904 2.84014 12.4859 2.8447 12.4814 2.8447C12.4769 2.84926 12.4724 2.84926 12.4678 2.85381C12.4543 2.86293 12.4408 2.87661 12.4318 2.89028C12.4273 2.89484 12.4182 2.8994 12.4092 2.90852C12.4047 2.91308 12.4047 2.91764 12.4002 2.91764C12.3957 2.9222 12.3912 2.92676 12.3867 2.93131C12.3867 2.93131 12.3822 2.93131 12.3822 2.93587L5.10889 11.8894C5.10438 11.8939 5.09987 11.903 5.09536 11.9122C5.09085 11.9167 5.09085 11.9167 5.08634 11.9213C5.08183 11.9258 5.08183 11.935 5.07732 11.9395C5.05928 11.9669 5.04576 11.9942 5.03674 12.0261C5.03223 12.0353 5.02772 12.0444 5.02772 12.058C5.02772 12.0626 5.02321 12.0717 5.02321 12.0763C5.01419 12.1173 5.00968 12.1583 5.00968 12.2039C5.00968 12.2085 5.00968 12.213 5.00968 12.2176C5.00968 12.2267 5.01419 12.2358 5.01419 12.2495C5.01419 12.2678 5.0187 12.286 5.02321 12.3042C5.02321 12.3133 5.03223 12.3225 5.03674 12.3316C5.04125 12.3453 5.04125 12.3635 5.05027 12.3772C5.06379 12.4091 5.08634 12.441 5.10889 12.4683C5.1179 12.4775 5.12241 12.4911 5.13143 12.5048C5.13594 12.5094 5.13594 12.5139 5.14045 12.5185L12.1071 19.9493C4.40546 25.7162 0 34.6469 0 44.5304C0 44.7903 0.207422 44.9954 0.459935 44.9954H4.55426C4.81128 44.9954 5.01419 44.7857 5.01419 44.5304C5.01419 36.5252 9.06793 28.5792 15.6062 23.683L30.1573 39.2012C30.1618 39.2058 30.1708 39.2103 30.1798 39.2149C30.1979 39.2331 30.2159 39.2513 30.234 39.265L30.2385 39.2696C30.2475 39.2787 30.261 39.2787 30.27 39.2833C30.2745 39.2878 30.2791 39.2878 30.2881 39.2924C30.2971 39.2969 30.3016 39.306 30.3106 39.306C30.3151 39.3106 30.3241 39.306 30.3287 39.3106C30.3377 39.3152 30.3467 39.3197 30.3557 39.3243C30.4008 39.338 30.4459 39.3425 30.4865 39.3425C30.491 39.3425 30.491 39.3425 30.4955 39.3425C30.5045 39.3425 30.5135 39.338 30.518 39.338C30.5586 39.3334 30.5992 39.3288 30.6398 39.3152C30.6668 39.306 30.6939 39.2924 30.7209 39.2787C30.7345 39.2696 30.748 39.2605 30.7615 39.2513C30.7931 39.2285 30.8202 39.2058 30.8427 39.1784L45.4253 23.6237C51.9321 28.4971 55.9633 36.4659 55.9633 44.5304C55.9633 44.7903 56.1707 44.9954 56.4232 44.9954H60.5175C60.522 44.9954 60.522 44.9954 60.5265 44.9954C60.7836 44.9954 60.9865 44.7857 60.9865 44.5304C61 44.4985 60.9955 44.4666 60.991 44.4393ZM4.09883 44.0654H0.924379C1.05965 34.6287 5.34336 26.1265 12.7384 20.6195L14.9659 22.9946C8.37352 27.9729 4.25214 35.9644 4.09883 44.0654ZM54.7728 11.9988L45.3487 16.0242L39.9287 18.3401L46.3632 7.3488L48.3022 4.0391L48.3518 4.10293L54.7728 11.9988ZM7.31838 13.485L21.8153 19.6758L29.0435 36.6528L7.31838 13.485ZM6.21814 11.9988L12.6843 4.0391L14.2219 6.66498L21.0578 18.3401L16.3502 16.3297L6.21814 11.9988ZM30.4955 3.79749L37.2051 8.31527L30.4955 9.93365L23.7813 8.31527L30.4955 3.79749ZM23.0824 9.10394L29.6117 10.6813L22.6856 18.0939L23.0824 9.10394ZM30.4955 21.6589L23.0058 19.1105L30.4955 11.0916L37.9852 19.1105L30.4955 21.6589ZM31.3793 10.6813L37.9086 9.10394L38.3054 18.0939L31.3793 10.6813ZM21.7793 17.7338L13.9784 4.41293L22.1716 8.79394L21.7793 17.7338ZM30.3467 22.5935C30.4414 22.6254 30.5451 22.6254 30.6398 22.5935L37.9807 20.0998L30.491 37.6968L23.0058 20.1043L30.3467 22.5935ZM39.2117 17.7338L38.8194 8.79394L47.0126 4.41293L43.4548 10.4898L39.2117 17.7338ZM44.8391 2.76264L33.2235 2.7672L38.364 0.952791L44.8391 2.76264ZM46.3813 3.69264L41.7684 6.15895L38.373 7.97792L32.0962 3.70175L46.3813 3.69264ZM22.618 7.97792L19.2226 6.16351L14.6097 3.69264L28.8947 3.70175L22.618 7.97792ZM16.1518 2.76264L22.627 0.95735L27.7674 2.77176L16.1518 2.76264ZM30.5631 2.71705C30.518 2.70793 30.4729 2.70793 30.4279 2.71705L25.3686 0.934556H35.6224L30.5631 2.71705ZM35.5503 28.1826L39.1711 19.6758L42.553 18.2307L53.6726 13.4804L31.9429 36.6574L35.5503 28.1826ZM56.8921 44.0654C56.7433 35.9052 52.64 27.8954 46.0837 22.9354L48.2571 20.6195C55.6476 26.1265 59.9313 34.6287 60.0666 44.0654H56.8921Z" fill="url(#paint0_linear_9_38)"/>
<defs>
<linearGradient id="paint0_linear_9_38" x1="0" y1="22.499" x2="60.9992" y2="22.499" gradientUnits="userSpaceOnUse">
<stop stop-color="#6C2E39"/>
<stop offset="0.2609" stop-color="#A08050"/>
<stop offset="0.4633" stop-color="#C79955"/>
<stop offset="0.7234" stop-color="#E8DA9D"/>
<stop offset="1" stop-color="#C79955"/>
</linearGradient>
</defs>
</svg>
