<svg width="17" height="20" viewBox="0 0 17 20" fill="none" xmlns="http://www.w3.org/2000/svg">
<path d="M9.26041 0C3.85667 0.000822657 0.984375 3.46832 0.984375 7.24926C0.984375 9.00234 1.96262 11.1898 3.52895 11.8833C3.97577 12.0848 3.91663 11.8389 4.30103 10.3663C4.31872 10.3068 4.32029 10.2437 4.30557 10.1834C4.29084 10.1231 4.26036 10.0678 4.21725 10.0233C1.97822 7.42942 3.78029 2.09695 8.9409 2.09695C16.4095 2.09695 15.014 12.4476 10.2403 12.4476C9.00989 12.4476 8.09326 11.4802 8.3832 10.2832C8.73474 8.85755 9.42304 7.32494 9.42304 6.29744C9.42304 3.70772 5.57086 4.0919 5.57086 7.5232C5.57086 8.58361 5.9454 9.29932 5.9454 9.29932C5.9454 9.29932 4.70596 14.3142 4.47598 15.2512C4.08666 16.8373 4.52855 19.4048 4.56715 19.6261C4.59097 19.7479 4.72732 19.7866 4.8037 19.6862C4.92609 19.5258 6.42425 17.3852 6.84396 15.8378C6.99674 15.2743 7.62344 12.9873 7.62344 12.9873C8.03658 13.7343 9.22755 14.3595 10.4966 14.3595C14.2715 14.3595 17.0001 11.0359 17.0001 6.91197C16.987 2.95828 13.6087 0 9.26041 0Z" fill="#CBA15E"/>
</svg>
