<svg width="16" height="15" viewBox="0 0 16 15" fill="none" xmlns="http://www.w3.org/2000/svg">
<path d="M15.5767 5.36169L10.6741 4.65623L8.47657 0.246943C8.31244 -0.0823142 7.73898 -0.0823142 7.57485 0.246943L5.37802 4.65623L0.475343 5.36169C0.384823 5.37479 0.299885 5.41113 0.229855 5.46673C0.159825 5.52232 0.107411 5.59502 0.0783675 5.67684C0.0493243 5.75865 0.0447753 5.84643 0.0652197 5.93052C0.0856642 6.01462 0.130312 6.09178 0.19426 6.15353L3.75597 9.59258L2.91405 14.4544C2.89902 14.5414 2.91026 14.6306 2.94649 14.7118C2.98272 14.793 3.04248 14.863 3.11893 14.9137C3.19539 14.9644 3.28545 14.9939 3.37883 14.9987C3.47222 15.0035 3.56514 14.9834 3.647 14.9408L8.02604 12.661L12.4051 14.9414C12.4869 14.984 12.5799 15.0041 12.6733 14.9993C12.7666 14.9945 12.8567 14.9651 12.9332 14.9143C13.0096 14.8636 13.0694 14.7936 13.1056 14.7124C13.1418 14.6312 13.1531 14.542 13.138 14.4551L12.2961 9.5932L15.8578 6.15416C15.922 6.09242 15.9668 6.01521 15.9873 5.93103C16.0079 5.84685 16.0034 5.75895 15.9743 5.67702C15.9453 5.59509 15.8928 5.52231 15.8226 5.46667C15.7525 5.41103 15.6674 5.37471 15.5767 5.36169Z" fill="#C7C7C7"/>
</svg>
