<svg width="23" height="19" viewBox="0 0 23 19" fill="none" xmlns="http://www.w3.org/2000/svg">
<path d="M22.5005 2.89175C21.686 3.24958 20.8181 3.48677 19.9133 3.60194C20.8441 3.0453 21.5546 2.17059 21.8886 1.11627C21.0207 1.63452 20.0625 2.00058 19.0414 2.20486C18.2173 1.32604 17.0428 0.781738 15.7616 0.781738C13.2757 0.781738 11.2744 2.80263 11.2744 5.28007C11.2744 5.63654 11.3045 5.9793 11.3784 6.3056C7.64555 6.12325 4.34248 4.33132 2.12355 1.60161C1.73616 2.27479 1.50893 3.0453 1.50893 3.87477C1.50893 5.43226 2.30971 6.81288 3.50336 7.61219C2.78197 7.59848 2.07427 7.38871 1.47471 7.05829V7.10765C1.47471 9.29306 3.03111 11.1083 5.07208 11.5265C4.7066 11.6266 4.30826 11.6745 3.89486 11.6745C3.6074 11.6745 3.3172 11.6581 3.04479 11.5978C3.62656 13.3787 5.27741 14.6881 7.24037 14.7306C5.71271 15.9275 3.77303 16.6486 1.67319 16.6486C1.30497 16.6486 0.9518 16.6322 0.598633 16.5869C2.58759 17.8716 4.94478 18.6051 7.48676 18.6051C15.7492 18.6051 20.2665 11.7499 20.2665 5.80792C20.2665 5.60912 20.2596 5.41718 20.2501 5.2266C21.1412 4.59319 21.89 3.80211 22.5005 2.89175Z" fill="#CBA15E"/>
</svg>
