<svg width="53" height="53" viewBox="0 0 53 53" fill="none" xmlns="http://www.w3.org/2000/svg">
<path d="M23.1102 46.6886L12.6527 33.5935C12.5426 33.4541 12.3807 33.3689 12.2188 33.3689H0.621625C0.388516 33.3689 0.168357 33.5393 0.0777031 33.7949C-0.0194258 34.0582 0.025901 34.3602 0.181307 34.5693L10.2309 47.6644C10.3475 47.8115 10.5029 47.8967 10.6712 47.8967H22.6764C22.9159 47.8967 23.1296 47.7263 23.2268 47.463C23.3239 47.1997 23.2786 46.89 23.1102 46.6886ZM12.1864 35.0726L16.6349 43.1883L11.8627 40.354L9.14954 34.7938H11.9598L12.1864 35.0726ZM2.67428 35.6999L10.8979 40.5863L7.55663 42.0732L2.67428 35.6999ZM8.46316 34.8016L10.8914 39.781L2.49945 34.8016H8.46316ZM7.99695 42.6385L11.636 41.02L16.499 43.9085L10.995 46.4641H10.9302L7.99695 42.6385ZM29.7797 47.463C29.8768 47.7263 30.0905 47.8967 30.3301 47.8967H42.3417C42.5101 47.8967 42.6655 47.8115 42.782 47.6644L52.8316 34.5693C52.9935 34.3602 53.0324 34.0582 52.9417 33.7949C52.8446 33.5393 52.6309 33.3689 52.3978 33.3689H40.7877C40.6258 33.3689 40.4704 33.4464 40.3538 33.5935L29.8963 46.6886C29.7344 46.89 29.6891 47.1997 29.7797 47.463ZM41.0467 34.8016H43.8569L41.1438 40.3618L36.3715 43.1961L40.82 35.0804L41.0467 34.8016ZM45.4498 42.0732L42.1086 40.5863L50.3322 35.6999L45.4498 42.0732ZM50.5135 34.8016L42.1216 39.781L44.5498 34.8016H50.5135ZM42.0762 46.4641H42.018L36.514 43.9085L41.3769 41.02L45.016 42.6385L42.0762 46.4641ZM53 11.4999C53 11.4844 53.0065 11.4689 53 11.4611C53 11.4302 52.9806 11.4147 52.9806 11.3837C52.9676 11.3217 52.9547 11.2598 52.9288 11.2056C52.9158 11.1746 52.8964 11.1514 52.8834 11.1204C52.8511 11.0662 52.8122 11.0197 52.7669 10.981C52.7539 10.9733 52.7475 10.95 52.7345 10.9423L38.2623 0.108416C38.1717 0.03872 38.0616 0 37.9515 0H28.6077H27.2349H25.7651H24.3081H15.0615C14.9449 0 14.8413 0.03872 14.7442 0.108416L0.284911 10.9345C0.271961 10.9423 0.265486 10.9655 0.252535 10.9733C0.207208 11.012 0.168357 11.0584 0.13598 11.1127C0.116555 11.1436 0.103604 11.1669 0.0841784 11.1978C0.0582773 11.252 0.0453268 11.314 0.0323763 11.3759C0.025901 11.3992 0.0129505 11.4224 0.00647526 11.4534C0.00647526 11.4689 0.00647526 11.4766 0.00647526 11.4921C0.00647526 11.5076 0 11.5231 0 11.5386C0 11.585 0.0129505 11.6315 0.025901 11.678C0.0323763 11.7167 0.0323763 11.7477 0.0388516 11.7864C0.0647526 11.8793 0.110079 11.9567 0.161881 12.0264V12.0342C0.168357 12.0419 0.168357 12.0497 0.181307 12.0497L26.0564 44.6287C26.0694 44.6442 26.0694 44.6597 26.0823 44.6752C26.1989 44.8068 26.3478 44.8688 26.4903 44.8688H26.4968H26.5032C26.6522 44.8688 26.8011 44.8068 26.9177 44.6752C26.9306 44.6597 26.9371 44.6442 26.9436 44.6287L52.8187 12.0497C52.8252 12.0419 52.8252 12.0342 52.8316 12.0342V12.0264C52.8834 11.9567 52.9288 11.8793 52.9547 11.7864C52.9611 11.7554 52.9612 11.7167 52.9676 11.678C52.9741 11.6315 52.9935 11.585 52.9935 11.5386C53.0065 11.5308 53 11.5153 53 11.4999ZM12.1929 3.70938L6.99976 10.8339H2.68076L12.1929 3.70938ZM1.99438 12.2588H6.90263L12.8016 25.865L1.99438 12.2588ZM14.7636 27.3673L8.2171 12.2588H14.7701V27.3673H14.7636ZM14.7636 10.8261H8.57972L14.7636 2.34643V10.8261ZM37.1356 1.43264L33.6649 7.0393L27.7465 1.43264H37.1356ZM37.5824 11.6547L34.5973 20.1499L27.3256 1.95149L37.5824 11.6547ZM18.4092 20.1577L15.4241 11.6625L25.6874 1.95149L18.4092 20.1577ZM25.2729 1.43264L19.3546 7.0393L15.8838 1.43264H25.2729ZM15.3593 1.79661L18.8754 7.47297L15.3593 10.8029V1.79661ZM15.3593 13.3197L18.0595 21.0172L15.3593 27.7778V13.3197ZM15.4564 29.2027L18.3768 21.9001L21.6662 31.2626L19.4646 34.244L15.4564 29.2027ZM19.8726 34.7706L21.9188 31.9982L25.2794 41.5698L19.8726 34.7706ZM27.7335 41.5698L31.0942 31.9982L33.1404 34.7706L27.7335 41.5698ZM33.5483 34.2518L31.3467 31.2703L34.6362 21.9078L37.5565 29.2104L33.5483 34.2518ZM37.6472 27.7778L34.9405 21.0172L37.6472 13.3197V27.7778ZM37.6472 10.8029L34.1246 7.47297L37.6472 1.79661V10.8029ZM50.3257 10.8261H46.0132L40.82 3.70164L50.3257 10.8261ZM38.2494 2.34643L44.4332 10.8261H38.2494V2.34643ZM38.2494 12.2588H44.7958L38.2494 27.3673V12.2588ZM40.2049 25.865L46.1039 12.2588H51.0121L40.2049 25.865ZM30.22 53H26.5032H22.7864L26.5032 47.5869L30.22 53ZM3.00452 21.6832L8.94233 29.0788H3.00452V21.6832ZM50.0084 29.0788H44.0771L50.0084 21.6832V29.0788Z" fill="#CBA15E" fill-opacity="0.5"/>
</svg>
