<svg width="53" height="53" viewBox="0 0 53 53" fill="none" xmlns="http://www.w3.org/2000/svg">
<path d="M0 39.7103C0 39.7368 0.0122941 39.7544 0.0184412 39.7809C0.0245883 39.8338 0.0368824 39.8867 0.0553236 39.9308C0.0676177 39.9661 0.0799119 39.9837 0.092206 40.019C0.116794 40.0631 0.141383 40.0983 0.172118 40.1336C0.184412 40.1424 0.190559 40.1689 0.202853 40.1777L14.8267 53H36.3722L53 38.1141L26.7397 0C26.7397 0 14.9435 17.3374 14.9251 17.3639L0.129088 39.19H0.122941C0.116794 39.1988 0.116794 39.2077 0.110647 39.2165C0.0737648 39.2694 0.0491765 39.3399 0.0307353 39.4105C0.0245883 39.4369 0.0245883 39.4722 0.0184412 39.4987C0.0122941 39.5428 0 39.5869 0 39.6309C0 39.6486 0.00614707 39.6574 0.00614707 39.675C0.00614707 39.6839 0 39.6927 0 39.7103ZM16.007 51.8977L19.5108 45.2749L25.4857 51.8977H16.007ZM21.0721 40.2571L19.3448 43.52L16.4004 40.2571H21.0721ZM15.7918 39.0048L18.6379 29.5072L21.7729 38.9431L21.736 39.0136H15.7918V39.0048ZM20.0333 44.2784L22.1602 40.2571H22.2032L25.5841 50.4338L20.0333 44.2784ZM26.3279 49.7636L23.1683 40.2571H26.3279V49.7636ZM26.3279 39.0048H22.8241L26.3279 32.382V39.0048ZM26.3279 30.3185L22.363 37.8143L19.0989 27.9727L22.0557 18.1135H26.334V30.3185H26.3279ZM26.3279 16.8701H22.4245L26.3279 3.83611V16.8701ZM25.4366 3.65973L21.4778 16.8701H16.4741L25.4366 3.65973ZM21.1029 18.1223L18.5949 26.4824L15.8533 18.2193C15.841 18.1752 15.8164 18.1488 15.8041 18.1223H21.1029ZM15.6873 20.618L18.14 28.008L15.6258 36.3945L15.6873 20.618ZM15.6074 40.9449L18.8223 44.5077L15.5705 50.6542L15.6074 40.9449ZM1.97936 40.2571H7.00151L9.7431 44.7105L8.54442 46.0156L1.97936 40.2571ZM7.91127 39.0048L10.4131 32.0116L14.2305 39.0048H7.91127ZM13.837 40.2571L10.4377 43.9521L8.1633 40.2571H13.837ZM9.34354 46.7123L10.3209 45.6453L12.8965 49.8253L9.34354 46.7123ZM14.7038 50.8835L11.0217 44.8957L14.7468 40.8479L14.7038 50.8835ZM14.753 37.9201L10.8557 30.7947L14.8206 19.7273L14.753 37.9201ZM13.0625 21.8967L10.2656 29.7188L9.15298 27.6817L13.0625 21.8967ZM8.53827 28.5724L9.82916 30.9358L6.94004 39.0048H1.46915L8.53827 28.5724Z" fill="#CBA15E" fill-opacity="0.5"/>
</svg>
