<svg width="53" height="53" viewBox="0 0 53 53" fill="none" xmlns="http://www.w3.org/2000/svg">
<path d="M22.9713 51.348L6.12641 33.9691C5.9812 33.8189 5.78952 33.7688 5.61526 33.8356C5.441 33.9023 5.29579 34.0859 5.22027 34.3278L0.0506402 51.3313C-0.0306799 51.5983 -0.0132542 51.907 0.0971088 52.149C0.207472 52.3909 0.393346 52.5411 0.596646 52.5495L22.6809 53C22.6809 53 22.6867 53 22.6925 53C22.6983 53 22.6983 53 22.7041 53C23.041 53 23.3082 52.6079 23.3082 52.1323C23.3024 51.7819 23.1688 51.4899 22.9713 51.348ZM10.8953 47.6436L12.33 51.0477L3.50094 50.8641L10.8953 47.6436ZM7.19519 37.2062L14.787 45.0405L11.1683 46.6174L7.19519 37.2062ZM13.0444 51.056L11.4935 47.3767L15.3737 45.683C15.3853 45.683 15.3911 45.6663 15.3969 45.6663L20.7698 51.2145L13.0444 51.056ZM29.6918 52.124C29.6918 52.5995 29.959 52.9917 30.2959 52.9917C30.3017 52.9917 30.3017 52.9917 30.3075 52.9917C30.3075 52.9917 30.3133 52.9917 30.3191 52.9917L52.4034 52.5411C52.6067 52.5411 52.7925 52.3909 52.9029 52.1406C53.0133 51.8987 53.0307 51.59 52.9494 51.323L47.7797 34.3195C47.71 34.0775 47.559 33.9023 47.3847 33.8272C47.2105 33.7605 47.0188 33.8105 46.8736 33.9607L30.0287 51.3397C29.8254 51.4899 29.6918 51.7819 29.6918 52.124ZM49.4933 50.8641L40.6584 51.0477L42.0931 47.6436L49.4933 50.8641ZM41.8259 46.6174L38.2072 45.0405L45.7932 37.2146L41.8259 46.6174ZM32.2243 51.2145L37.5973 45.6663C37.6089 45.6746 37.6147 45.683 37.6205 45.683L41.5006 47.3767L39.9498 51.056L32.2243 51.2145ZM40.8966 14.8046C40.8966 14.7713 40.8966 14.7295 40.8908 14.6962C40.8849 14.6628 40.8791 14.6294 40.8675 14.596C40.8617 14.5794 40.8675 14.5543 40.8559 14.5376C40.8501 14.521 40.8385 14.5043 40.8327 14.4876C40.821 14.4542 40.8094 14.4292 40.7978 14.3958C40.7804 14.3624 40.7688 14.3374 40.7513 14.3124C40.7281 14.279 40.7107 14.2456 40.6875 14.2206C40.6758 14.2039 40.67 14.1872 40.6584 14.1789L26.8979 0.1372C26.8921 0.128857 26.8863 0.128857 26.8805 0.128857C26.8398 0.0954838 26.7991 0.0704541 26.7585 0.0537676C26.7236 0.0370811 26.6946 0.0120514 26.6597 0.00370811C26.6249 -0.00463514 26.5842 0.00370811 26.5494 0.00370811C26.5087 0.00370811 26.4681 -0.00463514 26.4274 0.0120514C26.3925 0.0203946 26.3635 0.0454243 26.3345 0.0621108C26.2938 0.0871406 26.2531 0.103827 26.2125 0.1372C26.2067 0.145543 26.2009 0.145543 26.195 0.145543L12.3474 14.2873C12.0744 14.5627 12.0105 15.105 12.208 15.4971C12.2196 15.5221 12.2428 15.5305 12.2603 15.5555C12.2661 15.5722 12.2661 15.5972 12.2719 15.6139L26.0266 49.621C26.0324 49.6377 26.044 49.6544 26.0556 49.671C26.0673 49.6961 26.0789 49.7128 26.0905 49.7378C26.137 49.8129 26.1834 49.8796 26.2415 49.9297C26.2473 49.9297 26.2473 49.938 26.2473 49.938C26.2822 49.9631 26.317 49.9797 26.3519 50.0048C26.4158 50.0381 26.4797 50.0548 26.5436 50.0548C26.6133 50.0548 26.6772 50.0298 26.7469 49.9964C26.7817 49.9797 26.8166 49.9631 26.8456 49.938L26.8514 49.9297C26.9095 49.8796 26.956 49.8129 27.0024 49.7378C27.0141 49.7128 27.0257 49.6961 27.0373 49.671C27.0431 49.6544 27.0605 49.6377 27.0663 49.621L40.821 15.3219C40.8269 15.3052 40.8269 15.2802 40.8327 15.2635C40.8443 15.2218 40.8559 15.1801 40.8675 15.1384C40.8733 15.105 40.8849 15.0716 40.8908 15.0299C40.8966 14.9965 40.8966 14.9715 40.8966 14.9381C40.8966 14.8881 40.8966 14.8547 40.8966 14.8046ZM18.4406 10.1908L21.3507 19.2015L14.0493 14.6711L18.4406 10.1908ZM19.4745 29.9643L14.0551 16.565L21.5133 21.1872L19.4745 29.9643ZM18.9401 9.68187L25.8407 2.63183L21.9954 19.1348L18.9401 9.68187ZM26.2473 24.124V32.2337L23.0236 22.1217L26.2473 24.124ZM26.4971 47.4434L24.5686 42.3457L26.4971 34.5364L28.5708 42.3457L26.4971 47.4434ZM26.8747 32.2587L26.8514 32.3338V24.124L30.2901 22.0048L26.8747 32.2587ZM27.3568 2.73195L34.3329 9.85708L31.2659 19.0847L27.3568 2.73195ZM33.7462 29.4887L31.7422 21.1038L38.8694 16.7069L33.7462 29.4887ZM31.9223 19.1097L34.8324 10.366L39.0785 14.6962L31.9223 19.1097Z" fill="#CBA15E" fill-opacity="0.5"/>
</svg>
