<svg width="53" height="53" viewBox="0 0 53 53" fill="none" xmlns="http://www.w3.org/2000/svg">
<path d="M52.9921 37.4644C53 37.4255 53 37.3931 53 37.3542C53 37.3153 53 37.2828 52.9921 37.2439C52.9843 37.205 52.9607 37.1661 52.9449 37.1337C52.9292 37.1078 52.9292 37.0754 52.9134 37.0494L27.2198 0.285295C27.212 0.272327 27.1962 0.265843 27.1884 0.259359C27.1648 0.226939 27.1254 0.201003 27.0939 0.175067C27.0625 0.149131 27.0231 0.116712 26.9838 0.0972596C26.968 0.0907756 26.968 0.0778077 26.9523 0.0713237C26.9287 0.0583558 26.8972 0.0583558 26.8736 0.0518718C26.8264 0.0324199 26.7792 0.0194519 26.7319 0.0129679C26.6847 0 26.6454 0 26.5982 0C26.5509 0 26.5037 0 26.4565 0.00648397C26.4093 0.0129679 26.3621 0.0259359 26.3227 0.0453878C26.2913 0.0518718 26.2598 0.0583558 26.2362 0.0713237C26.2204 0.0778077 26.2126 0.0907756 26.2047 0.0972596C26.1653 0.116712 26.1339 0.149131 26.1024 0.175067C26.0709 0.201003 26.0316 0.233423 26.008 0.265843C25.9922 0.272327 25.9843 0.272327 25.9765 0.285295L0.27502 36.7317C0.259282 36.7576 0.259282 36.7771 0.243543 36.803C0.204196 36.829 0.164849 36.8549 0.133371 36.8873C-0.0948414 37.1532 -0.0240168 37.5228 0.298629 37.7108L26.1732 52.8768C26.1968 52.8898 26.2126 52.8963 26.2362 52.9027C26.2598 52.9092 26.2755 52.9222 26.2991 52.9287C26.3149 52.9352 26.3306 52.9417 26.3385 52.9481C26.3463 52.9481 26.3463 52.9546 26.3542 52.9546H26.3621C26.3778 52.9611 26.3936 52.9611 26.4093 52.9611C26.4565 52.987 26.5195 53 26.5824 53C26.6454 53 26.7005 52.9805 26.7556 52.9611C26.7713 52.9611 26.787 52.9611 26.8028 52.9546C26.8264 52.9481 26.8421 52.9352 26.8657 52.9287C26.8893 52.9222 26.9051 52.9157 26.9287 52.9027C26.9523 52.8898 26.9759 52.8898 26.9916 52.8768L52.6852 37.8275C52.7167 37.8081 52.7324 37.7821 52.7639 37.7627C52.7954 37.7367 52.8347 37.7108 52.8584 37.6784C52.882 37.646 52.8977 37.6135 52.9213 37.5746C52.9607 37.5357 52.9764 37.5033 52.9921 37.4644ZM2.06924 37.2893C2.10072 37.2764 2.12433 37.2699 2.14794 37.2504L16.0846 27.1679L18.1622 32.5495L11.4653 42.7942L2.06924 37.2893ZM13.4641 20.3856L15.8486 26.5519L2.10859 36.4918L13.4641 20.3856ZM50.1119 35.409L37.6704 26.6102L39.9604 20.8849L50.1119 35.409ZM26.2362 19.8215V20.2041L19.1144 31.0971L17.2651 26.312L26.2362 19.8215ZM26.2362 21.449V49.5051L19.4213 31.8752L26.2362 21.449ZM26.9523 21.423L34.019 31.9336L26.9523 49.6024V21.423ZM38.7643 20.0938L36.49 25.7738L26.9602 19.0305V2.28236L39.1656 19.7372C38.9767 19.8021 38.8272 19.9253 38.7643 20.0938ZM34.9712 33.3471L40.5742 41.679L41.4241 42.9758L27.9674 50.8603L34.9712 33.3471Z" fill="#CBA15E" fill-opacity="0.5"/>
</svg>
