<svg width="53" height="53" viewBox="0 0 53 53" fill="none" xmlns="http://www.w3.org/2000/svg">
<path d="M52.9154 13.8958C52.9414 13.8492 52.961 13.8026 52.974 13.7466C52.9805 13.7186 52.987 13.6907 52.987 13.6627C52.9935 13.6254 53 13.5974 53 13.5601C53 13.5508 52.9935 13.5321 52.9935 13.5228C52.9935 13.5135 52.9935 13.5041 52.9935 13.4855C52.9935 13.4668 52.9805 13.4482 52.9805 13.4295C52.974 13.3829 52.961 13.3363 52.9479 13.299C52.9349 13.271 52.9219 13.2523 52.9154 13.2244C52.8959 13.187 52.8764 13.1497 52.8503 13.1218C52.8373 13.1124 52.8308 13.0938 52.8243 13.0845L38.7348 0.139891C38.7283 0.130565 38.7218 0.130565 38.7153 0.121239C38.7087 0.111913 38.6957 0.111913 38.6892 0.102587C38.6827 0.0932606 38.6697 0.0932606 38.6632 0.0839345C38.6502 0.0746085 38.6372 0.0652824 38.6241 0.0652824C38.6111 0.0652824 38.6046 0.0652824 38.5916 0.0559564C38.5916 0.0559564 38.5851 0.0559564 38.5786 0.0559564C38.5656 0.0559564 38.5591 0.0466303 38.546 0.0466303C38.5395 0.0466303 38.533 0.0466303 38.5265 0.0466303L27.3525 0C27.3525 0 27.3525 0 27.346 0C27.3395 0 27.333 0 27.3265 0C27.3005 0 27.2744 0.00932606 27.2484 0.0279782C27.2289 0.0373042 27.2094 0.0373042 27.1898 0.0466303C27.1898 0.0466303 27.1898 0.0466303 27.1833 0.0466303C27.1768 0.0466303 27.1768 0.0559564 27.1703 0.0559564C27.1508 0.0746085 27.1378 0.0932606 27.1182 0.111913C27.0987 0.130565 27.0792 0.149217 27.0597 0.167869C27.0532 0.177195 27.0532 0.186521 27.0467 0.186521C27.0402 0.195847 27.0402 0.195847 27.0336 0.195847C27.0206 0.214499 27.0206 0.242478 27.0141 0.26113C27.0011 0.289108 26.9881 0.317086 26.9816 0.345064C26.9816 0.35439 26.9751 0.363716 26.9751 0.382368C26.9686 0.419673 26.9686 0.447651 26.9621 0.484955C26.9621 0.512933 26.949 0.531585 26.949 0.559564V0.578216L26.8254 52.2166C26.8254 52.2259 26.8254 52.2259 26.8254 52.2353C26.8254 52.2912 26.8384 52.3472 26.8514 52.4031C26.8579 52.4218 26.8644 52.4404 26.8709 52.4591C26.884 52.4964 26.9035 52.5337 26.923 52.571C26.936 52.5896 26.9425 52.599 26.9555 52.6176C26.9816 52.6549 27.0141 52.6829 27.0467 52.7109C27.0532 52.7109 27.0597 52.7202 27.0662 52.7295C27.0662 52.7295 27.0662 52.7295 27.0727 52.7295C27.1182 52.7575 27.1703 52.7668 27.2159 52.7668C27.2614 52.7668 27.307 52.7482 27.3525 52.7295C27.3655 52.7202 27.3786 52.7109 27.3851 52.7109C27.4176 52.6829 27.4501 52.6549 27.4762 52.6176C27.4827 52.6083 27.4892 52.6083 27.4957 52.599L38.5851 35.7188L38.7933 35.411L42.8217 29.2745L52.8829 13.9611L52.8894 13.9518C52.9089 13.9238 52.9089 13.9052 52.9154 13.8958ZM42.7046 27.829L42.1839 25.8705L46.349 14.0824L51.718 14.1103L42.7046 27.829ZM29.9817 47.2085L29.6238 45.4086L35.1164 26.542L37.8497 35.2152L29.9817 47.2085ZM37.3942 12.9259L32.702 12.9073L34.4461 9.51258L37.3942 12.9259ZM34.9082 8.60795L38.1361 2.30354V12.357L34.9082 8.60795ZM31.7453 12.8979H31.6607L28.3743 2.46208L33.8474 8.8038L31.7453 12.8979ZM27.73 3.1149L30.8147 12.8886L27.7105 12.87L27.73 3.1149ZM27.704 13.9891L31.1661 14.0077L31.1726 14.0264L27.6909 20.8158L27.704 13.9891ZM27.6844 22.709L31.5371 15.1922L34.6804 25.1617L29.2854 43.6926L27.6519 35.4577L27.6844 22.709ZM32.0642 14.1663L32.1423 14.0171L37.9213 14.045L35.0904 23.7628L32.0642 14.1663ZM38.1426 16.1527V33.4339L35.5264 25.1431L38.1426 16.1527ZM38.917 16.6377L41.3444 25.8052L38.917 32.6785V16.6377ZM39.0602 14.045L45.4899 14.073L41.8195 24.4623L39.0602 14.045ZM39.6133 12.9352L43.0169 9.11156L45.2817 12.9632L39.6133 12.9352ZM38.917 12.3104V2.13567L42.5223 8.26289L38.917 12.3104ZM40.4724 3.05895L44.1493 6.43498L43.1341 7.58209L40.4724 3.05895ZM34.3029 7.9085L28.4459 1.11913L37.7586 1.16576L34.3029 7.9085ZM27.6454 39.4865L28.8038 45.3433L27.6194 49.4095L27.6454 39.4865ZM29.1422 47.0593L29.357 48.1504L28.4003 49.6053L29.1422 47.0593ZM41.7154 27.2134L42.1189 28.7336L40.0884 31.8205L41.7154 27.2134ZM46.2969 12.9725L43.6287 8.43076L44.8391 7.06915L51.2884 12.9912L46.2969 12.9725ZM17.4346 23.1846L14.3238 13.243H20.6559L17.4346 23.1846ZM25.27 0H25.1073L18.8923 7.80591L20.9813 12.1239L25.27 0ZM6.96341 6.25779L0.130157 12.2078H12.9571L6.96341 6.25779ZM14.7338 12.2078L17.8576 7.84322L14.2717 0.401021L14.4279 12.2171H14.7338V12.2078ZM18.3457 7.06915L24.4175 0H16.3998L14.6557 0.0746085L18.3457 7.06915ZM0 13.2523L9.63814 28.2859L13.3736 13.2523H0ZM18.0463 12.2078H20.3631L18.4042 8.39345L15.5278 12.1146L18.0463 12.2078ZM21.7428 13.2523L25.4978 20.8251V13.4668L25.4913 13.2617H21.7428V13.2523ZM25.4978 51.0415V38.9363L24.1116 45.1754L25.4978 51.0415ZM17.8576 24.1452L23.6691 43.8978L25.5043 36.2504V22.1401L21.1766 13.7559L17.8576 24.1452ZM25.4978 12.1146V0.0932606L21.6907 12.1146H25.4978ZM13.6665 12.2078H13.7511V0.391694L7.56213 5.87542L13.6665 12.2078ZM12.7424 33.1262L13.7511 34.5251V13.7559L10.0416 28.9108L12.7424 33.1262ZM14.4344 35.6162L25.4978 53V52.6456L17.4801 25.3109L14.4344 35.6162ZM14.2717 14.7445L14.4214 32.8371L17.1222 24.1079L14.2717 14.7445Z" fill="#CBA15E" fill-opacity="0.5"/>
</svg>
