<svg width="53" height="53" viewBox="0 0 53 53" fill="none" xmlns="http://www.w3.org/2000/svg">
<path d="M45.9462 0.495641L25.8317 25.7229L7.30789 0L0 15.1885V37.2739L7.30789 52.6556L25.9384 29.4612L45.9411 53L53 38.1224V27.5795V25.9162V15.3733L45.9462 0.495641ZM13.5384 23.4211L7.36379 27.6635L13.5384 31.9058L23.677 28.4112L13.2284 35.4257L2.38345 27.6551L13.2284 19.8929L23.8396 26.4958L13.5384 23.4211ZM46.4595 16.0789H51.577L48.35 19.2376L46.4595 16.0789ZM51.5008 25.6641L46.1901 22.3123L48.2687 20.2793L51.5008 25.6641ZM46.1088 3.53669L50.5861 12.9707L46.1088 7.87985V3.53669ZM45.6057 3.01585V7.82945L39.6649 12.0382L38.7755 11.5846L45.6057 3.01585ZM45.6057 8.73672V15.0961L40.4068 12.4246L45.6057 8.73672ZM39.6954 12.9287L44.198 15.2389H36.4327L39.6954 12.9287ZM44.3149 16.0789L40.0511 18.4395L36.3057 16.0789H44.3149ZM45.6057 16.2385V21.9258L45.5854 21.9426L40.788 18.91L45.6057 16.2385ZM35.0911 16.2049L39.2939 18.8596L27.9712 25.1349L35.0911 16.2049ZM27.5494 29.0076L35.7619 32.6787L39.1008 34.5269L34.5422 37.3243L27.5494 29.0076ZM39.8631 34.9553L44.3098 37.4167H35.8534L39.8631 34.9553ZM44.198 38.2484L39.6039 40.609L36.1888 38.2484H44.198ZM45.6057 50.4882L38.5113 42.0455L39.5785 41.4994L45.6057 45.6662V50.4882ZM45.6057 44.7673L40.3306 41.113L45.6057 38.3996V44.7673ZM45.6057 37.2571L40.6203 34.4933L45.5142 31.4858L45.6057 31.5782V37.2571ZM39.6191 31.1498L31.6658 26.7394L39.6191 22.3291L46.7949 26.7394L39.6191 31.1498ZM51.5161 27.7979L48.2687 33.2164L46.119 31.1162L51.5161 27.7979ZM46.1088 49.9505V45.6074L50.5861 40.5166L46.1088 49.9505ZM46.4595 37.4167L48.35 34.258L51.577 37.4167H46.4595ZM51.9938 36.8539L48.7159 33.6448L51.9938 28.1759V36.8539ZM51.9938 25.3113L48.7159 19.8424L51.9938 16.6334V25.3113Z" fill="#CBA15E" fill-opacity="0.5"/>
</svg>
