<svg width="62" height="81" viewBox="0 0 62 81" fill="none" xmlns="http://www.w3.org/2000/svg">
<path d="M33.8851 25.7994L48.9399 11.8239C48.9523 11.8124 48.9633 11.8001 48.9752 11.788C48.9836 11.7795 48.9922 11.7713 49.0004 11.7626C49.0337 11.727 49.0649 11.6899 49.0932 11.6513L49.1034 11.6363C49.1302 11.5985 49.1544 11.5596 49.1764 11.5196C49.1789 11.515 49.1823 11.511 49.1847 11.5063C49.1861 11.5036 49.187 11.5006 49.1884 11.4979C49.2116 11.4539 49.2319 11.4088 49.2491 11.3626C49.2521 11.3546 49.2547 11.3463 49.2575 11.3383C49.2721 11.297 49.2844 11.2549 49.2944 11.2123C49.2962 11.205 49.2984 11.1978 49.3 11.1905C49.31 11.144 49.3168 11.097 49.3212 11.0497L49.3236 11.0176C49.3266 10.973 49.3277 10.9282 49.3256 10.8834L49.3255 10.8717C49.3222 10.8133 49.3146 10.7553 49.3028 10.698C49.2813 10.5906 49.2453 10.4867 49.1957 10.389C49.1736 10.3445 49.1487 10.3014 49.1213 10.2599L42.5843 0.538207C42.5774 0.527924 42.569 0.518906 42.5619 0.508781C42.5438 0.483211 42.5247 0.458354 42.5047 0.434267C42.4929 0.420346 42.4806 0.407215 42.4682 0.393926C42.4458 0.369303 42.4225 0.345555 42.3982 0.322734C42.387 0.312451 42.3752 0.302959 42.3637 0.29315C42.3367 0.269761 42.3088 0.247539 42.2799 0.226547C42.2704 0.219744 42.2602 0.213732 42.2504 0.207246C42.2183 0.18536 42.1851 0.165034 42.1509 0.146338C42.1448 0.143016 42.1384 0.140484 42.1322 0.13732C41.9606 0.0476634 41.7698 0.000565169 41.5761 0L20.4374 0C20.3835 0 20.3301 0.00363867 20.2774 0.0105996C20.1042 0.0315165 19.9376 0.0894747 19.7889 0.180524C19.6402 0.271573 19.5129 0.393572 19.4156 0.538207L12.879 10.2599C12.8515 10.3014 12.8266 10.3446 12.8044 10.3892C12.7993 10.3993 12.7943 10.4093 12.7895 10.4196C12.7476 10.5084 12.7166 10.6019 12.6973 10.6982L12.6918 10.7273C12.6832 10.775 12.6775 10.8233 12.6747 10.8717L12.6745 10.8834C12.6726 10.9284 12.6736 10.9731 12.6766 11.0177L12.679 11.0495C12.6834 11.0968 12.6902 11.144 12.7002 11.1905C12.7018 11.1978 12.704 11.205 12.7057 11.2123C12.7157 11.2549 12.7281 11.297 12.7426 11.3384C12.7455 11.3465 12.7479 11.3546 12.751 11.3625C12.7685 11.4087 12.7887 11.4537 12.8119 11.4979C12.8133 11.5006 12.8141 11.5036 12.8157 11.5063C12.8182 11.5109 12.8214 11.5148 12.8239 11.5196C12.8459 11.5596 12.8702 11.5985 12.8969 11.6363L12.9071 11.6513C12.9429 11.6998 12.9824 11.7455 13.0251 11.788C13.037 11.8001 13.048 11.8124 13.0604 11.8239L28.1152 25.7994C15.9916 27.2296 6.55626 37.5546 6.55626 50.0406C6.55626 63.5014 17.5217 74.4526 31.0002 74.4526C44.4786 74.4526 55.444 63.5014 55.444 50.0406C55.444 37.5546 46.0087 27.2296 33.8851 25.7994ZM33.6545 22.7023L37.1766 12.1483H45.0235L33.6545 22.7023ZM31.0032 22.9785L27.4073 12.1484H34.6173L31.0032 22.9785ZM41.686 3.55213L45.8354 9.72332H38.332L41.686 3.55213ZM39.5348 2.42668L36.2906 8.39615L33.0463 2.42668H39.5348ZM34.249 9.72332H27.7645L31.0068 3.75764L34.249 9.72332ZM28.9673 2.42668L25.7231 8.39631L22.4788 2.42668H28.9673ZM20.3214 3.54106L23.6815 9.72332H16.1648L20.3214 3.54106ZM16.9765 12.1484H24.8489L28.3565 22.7126L16.9765 12.1484ZM31 72.0273C18.8606 72.0273 8.98436 62.164 8.98436 50.0404C8.98436 37.9168 18.8606 28.0535 31 28.0535C43.1394 28.0535 53.0156 37.9168 53.0156 50.0404C53.0156 62.164 43.1394 72.0273 31 72.0273Z" fill="#CBA15E"/>
<path d="M43.1687 21.56C42.8734 21.438 42.5418 21.4373 42.2459 21.5579C41.95 21.6785 41.7136 21.9108 41.588 22.2043C41.4625 22.4978 41.4579 22.829 41.5753 23.1259C41.6926 23.4228 41.9225 23.6615 42.2149 23.7902C52.7587 28.2886 59.5717 38.5923 59.5717 50.0405C59.5717 65.7745 46.7545 78.575 31 78.575C15.2455 78.575 2.42826 65.7743 2.42826 50.0404C2.42826 38.5707 9.25905 28.2591 19.8304 23.7709C20.1267 23.6451 20.3609 23.4069 20.4813 23.1087C20.6018 22.8104 20.5987 22.4766 20.4727 22.1807C20.3467 21.8847 20.1082 21.6509 19.8096 21.5306C19.511 21.4102 19.1767 21.4133 18.8804 21.5391C7.41088 26.409 0 37.5963 0 50.0404C0 67.1116 13.9065 80.9999 31 80.9999C48.0935 80.9999 62 67.1116 62 50.0404C62 37.6195 54.6083 26.4404 43.1687 21.56Z" fill="#CBA15E"/>
</svg>
