<svg width="74" height="61" viewBox="0 0 74 61" fill="none" xmlns="http://www.w3.org/2000/svg">
<path d="M50.7117 14.3035C45.7206 14.3035 40.9983 15.8485 37 18.7786C34.5083 16.9526 31.7356 15.6652 28.7916 14.954L35.0485 7.76507C35.0507 7.7626 35.0522 7.75971 35.0542 7.75724C35.0913 7.71392 35.1244 7.66755 35.1543 7.61886L35.1685 7.59553C35.1963 7.54757 35.2205 7.49758 35.2409 7.44527C35.2441 7.43715 35.2468 7.42904 35.2499 7.42078C35.2694 7.36782 35.2847 7.31341 35.2957 7.25805C35.2967 7.25298 35.2971 7.24791 35.298 7.24298C35.3074 7.19067 35.3127 7.1372 35.3145 7.08272C35.3148 7.07547 35.3155 7.06837 35.3155 7.06113C35.3155 7.05722 35.3161 7.0533 35.3161 7.04939C35.3161 6.99737 35.3112 6.94651 35.3042 6.89666C35.3028 6.88681 35.3015 6.87725 35.2997 6.86739C35.2908 6.81277 35.2775 6.75895 35.2601 6.70641C35.2578 6.6996 35.2551 6.69293 35.2528 6.68612C35.2335 6.63088 35.2099 6.57728 35.1821 6.52586L35.1783 6.51948C35.1484 6.46561 35.1138 6.41441 35.0751 6.36646C35.074 6.36501 35.0733 6.36342 35.0721 6.36197L35.0681 6.35704L30.2287 0.401237C30.1268 0.275879 29.9984 0.174832 29.8527 0.105431C29.7071 0.0360297 29.5478 1.45002e-05 29.3865 0H17.1897C16.863 0 16.5537 0.147367 16.3475 0.401237L11.5083 6.35617L11.5043 6.3611C11.5031 6.36255 11.5024 6.36414 11.5012 6.36559C11.4626 6.41341 11.4282 6.46456 11.398 6.51861L11.3943 6.52499C11.3665 6.57644 11.3429 6.63003 11.3236 6.68525C11.3211 6.69206 11.3184 6.69873 11.3162 6.70554C11.2959 6.76752 11.2812 6.83119 11.2721 6.89579C11.2646 6.94636 11.2606 6.9974 11.2603 7.04852C11.2603 7.05258 11.2609 7.05635 11.2609 7.06026C11.261 7.0675 11.2617 7.0746 11.2619 7.08185C11.2635 7.13648 11.269 7.18995 11.2784 7.24211C11.2792 7.24718 11.2797 7.25225 11.2807 7.25718C11.2915 7.31326 11.3074 7.36745 11.3265 7.41991C11.3295 7.42817 11.3323 7.43628 11.3354 7.4444C11.3558 7.49671 11.3801 7.5467 11.4079 7.59466C11.4123 7.60249 11.4172 7.61017 11.422 7.61799C11.4519 7.66682 11.4853 7.71305 11.5222 7.75637C11.5243 7.75884 11.5256 7.76173 11.5278 7.7642L17.7917 14.9615C7.59468 17.4455 0 26.6754 0 37.6518C0 50.5261 10.4472 61 23.2882 61C28.2793 61 33.0015 59.455 37 56.525C40.9983 59.4549 45.7204 61 50.7118 61C63.553 61 74 50.526 74 37.6518C74 24.7776 63.5528 14.3035 50.7117 14.3035ZM28.8706 2.17731L31.944 5.95987H28.4094L27.193 2.17731H28.8706ZM28.3923 8.1379H31.8405L26.3071 14.4958C26.2736 14.4916 26.2405 14.4868 26.2073 14.4826L28.3923 8.1379ZM21.6661 2.17717H24.9104L26.1268 5.95972H20.4497L21.6661 2.17717ZM26.094 8.13805L23.9669 14.3144C23.7408 14.3076 23.5146 14.3041 23.2885 14.3037C23.1491 14.3037 23.0062 14.3058 22.8609 14.309C22.7773 14.3105 22.6934 14.3118 22.6097 14.3143L20.4827 8.13805H26.094ZM17.7061 2.17717H19.3834L18.1671 5.95972H14.6326L17.7061 2.17717ZM14.7361 8.13805H18.1842L20.3707 14.4864L20.2724 14.499L14.7361 8.13805ZM23.2882 58.8217C11.645 58.8217 2.17259 49.3249 2.17259 37.6518C2.17259 27.0918 9.92467 18.3134 20.0228 16.7351C20.2748 16.6959 20.5279 16.6617 20.7819 16.6315L20.8773 16.6205C21.2184 16.5824 21.5604 16.5525 21.903 16.5308C21.9083 16.5305 21.9135 16.5316 21.9189 16.5311C22.1529 16.5159 22.387 16.5038 22.6213 16.4948C22.8437 16.4877 23.0662 16.4817 23.288 16.4817C23.7325 16.4817 24.1737 16.51 24.6537 16.541C24.6771 16.5424 24.7005 16.5432 24.7237 16.5432C24.7411 16.5432 24.7582 16.54 24.7755 16.5391C25.3558 16.5829 25.9468 16.6513 26.5592 16.7467C26.615 16.7554 26.6709 16.7596 26.7263 16.7596L26.7334 16.7592C30.2252 17.3281 33.4938 18.7655 36.3284 20.9999C36.6203 21.23 36.9065 21.4684 37.1866 21.7142C37.4594 21.9538 37.7261 22.2005 37.9863 22.4539C38.5287 22.9811 39.0426 23.5371 39.5258 24.1193L39.526 24.1194C42.6714 27.9088 44.4038 32.7146 44.4038 37.6516C44.4038 42.2359 42.91 46.7072 40.1785 50.3564C40.1728 50.3515 40.1667 50.3469 40.1608 50.3421C40.0104 50.2162 39.8621 50.0878 39.7162 49.9568C39.6881 49.9316 39.6608 49.9051 39.6329 49.8796C39.516 49.7731 39.4002 49.6655 39.2863 49.5557C39.2365 49.5076 39.1881 49.4583 39.1388 49.4095C39.0483 49.3201 38.9581 49.2301 38.8698 49.1385C38.8163 49.083 38.7637 49.0267 38.7111 48.9706C38.6287 48.8829 38.5469 48.7944 38.4664 48.7048C38.4418 48.6776 38.4177 48.6496 38.3933 48.6222C40.1464 46.1986 41.2973 43.3827 41.7363 40.4249C41.7787 40.1392 41.7062 39.8484 41.5347 39.6163C41.3632 39.3843 41.1068 39.23 40.8218 39.1874C40.6807 39.1663 40.5369 39.1733 40.3984 39.2079C40.26 39.2425 40.1298 39.3042 40.0151 39.3893C39.9005 39.4745 39.8037 39.5815 39.7304 39.7041C39.657 39.8268 39.6085 39.9628 39.5875 40.1042C39.2313 42.5047 38.3418 44.7988 36.9978 46.8166C35.184 44.1049 34.2318 40.9645 34.2318 37.6515C34.2318 34.3384 35.1841 31.1981 36.9978 28.4865C38.484 30.7154 39.4067 33.2661 39.6809 35.9442C39.7139 36.2287 39.8572 36.4887 40.08 36.668C40.3027 36.8473 40.587 36.9314 40.8711 36.9021C41.1553 36.8728 41.4165 36.7326 41.5982 36.5116C41.78 36.2907 41.8676 36.0069 41.8422 35.7217C41.4764 32.1483 40.0948 28.7738 37.8474 25.963C36.8136 24.6703 35.6139 23.5203 34.2795 22.5429C31.0713 20.1933 27.2706 18.9512 23.2882 18.9512C18.802 18.9504 14.4659 20.5713 11.0753 23.5166C10.8635 23.7075 10.7349 23.974 10.7173 24.259C10.6996 24.5439 10.7941 24.8244 10.9807 25.0401C11.1672 25.2559 11.4307 25.3895 11.7146 25.4124C11.9984 25.4353 12.2799 25.3455 12.4983 25.1624C15.4906 22.5616 19.3224 21.1293 23.288 21.1293C26.4277 21.1293 29.438 22.0051 32.0634 23.6677C29.0638 27.6879 27.4231 32.6073 27.4231 37.6513C27.4231 42.6953 29.0638 47.6147 32.0634 51.6349C29.438 53.2975 26.4277 54.1733 23.288 54.1733C14.2011 54.1733 6.80843 46.7615 6.80843 37.6513C6.80843 34.2632 7.82362 31.0075 9.74415 28.2361C9.82555 28.1187 9.88307 27.9863 9.91344 27.8465C9.94381 27.7068 9.94643 27.5624 9.92114 27.4216C9.89585 27.2809 9.84316 27.1465 9.76608 27.0262C9.68899 26.9058 9.58901 26.8019 9.47186 26.7203C9.35473 26.6386 9.2227 26.5809 9.08332 26.5505C8.94394 26.52 8.79993 26.5174 8.65954 26.5427C8.51914 26.5681 8.38511 26.6209 8.26509 26.6982C8.14507 26.7755 8.04142 26.8758 7.96006 26.9933C5.7853 30.1313 4.63584 33.8168 4.63584 37.6513C4.63584 47.9626 13.0032 56.3515 23.288 56.3515C26.9351 56.3515 30.4295 55.3101 33.4561 53.33C33.4827 53.3594 33.5104 53.388 33.5372 53.4171C33.6087 53.4953 33.6811 53.5728 33.7538 53.6502C33.8233 53.7244 33.893 53.7983 33.9637 53.8716C34.0375 53.9483 34.1124 54.0241 34.1873 54.0997C34.2587 54.1719 34.3301 54.2439 34.4023 54.315C34.4782 54.3897 34.555 54.4633 34.6317 54.5369C34.705 54.607 34.7781 54.6773 34.8523 54.7466C34.9299 54.819 35.0085 54.8904 35.0871 54.9617C35.1395 55.0093 35.1906 55.0578 35.2431 55.1048C31.7224 57.5413 27.6169 58.8217 23.2882 58.8217ZM50.7117 58.8217C45.9303 58.8217 41.4209 57.2593 37.6713 54.3036C36.4994 53.3789 35.4276 52.3333 34.4736 51.1841C31.3282 47.3945 29.5958 42.5888 29.5958 37.6518C29.5958 33.0676 31.0894 28.5963 33.821 24.947L33.8381 24.9607C33.9887 25.0866 34.1371 25.2152 34.2832 25.3464C34.3123 25.3725 34.3405 25.3999 34.3694 25.4263C34.4855 25.5317 34.6001 25.6388 34.7131 25.7475C34.7635 25.7962 34.8127 25.8462 34.8625 25.8956C34.9521 25.9843 35.0416 26.0736 35.1292 26.1643C35.1835 26.2205 35.2367 26.2777 35.2901 26.3347C35.3714 26.4215 35.4524 26.5089 35.532 26.5974C35.557 26.6252 35.5817 26.6536 35.6064 26.6817C33.3132 29.8563 32.0592 33.7171 32.0592 37.6519C32.0592 41.8884 33.5127 46.0395 36.1523 49.3401C37.1861 50.6328 38.3857 51.7829 39.7201 52.7604C42.9282 55.11 46.7291 56.3521 50.7115 56.3521C55.5895 56.3521 60.203 54.4765 63.7023 51.0709C63.8052 50.9715 63.8876 50.8526 63.9446 50.7211C64.0016 50.5897 64.0322 50.4482 64.0346 50.3049C64.0369 50.1615 64.0111 50.0191 63.9584 49.8859C63.9058 49.7526 63.8274 49.631 63.7278 49.5282C63.6282 49.4253 63.5093 49.3432 63.378 49.2865C63.2467 49.2298 63.1055 49.1997 62.9625 49.1978C62.8195 49.196 62.6776 49.2224 62.5448 49.2757C62.4121 49.3289 62.2911 49.4079 62.1889 49.5082C59.0974 52.5169 55.0213 54.1739 50.7114 54.1739C47.5717 54.1739 44.5614 53.298 41.9359 51.6353C44.9355 47.6153 46.5762 42.6958 46.5762 37.6518C46.5762 32.6077 44.9355 27.6882 41.9359 23.6682C44.5614 22.0056 47.5717 21.1298 50.7114 21.1298C59.7984 21.1298 67.191 28.5416 67.191 37.6518C67.191 40.7185 66.3472 43.712 64.7507 46.3086C64.5995 46.5544 64.552 46.8505 64.6185 47.1315C64.685 47.4125 64.8602 47.6556 65.1054 47.8072C65.3507 47.9587 65.6459 48.0064 65.9262 47.9397C66.2066 47.873 66.449 47.6974 66.6001 47.4516C68.4081 44.5112 69.3637 41.1225 69.3637 37.6518C69.3637 27.3405 60.9964 18.9516 50.7115 18.9516C47.0646 18.9516 43.5701 19.993 40.5435 21.9731C40.5176 21.9446 40.4907 21.9167 40.4647 21.8883C40.391 21.808 40.3168 21.7281 40.2421 21.6487C40.1745 21.5767 40.1068 21.5048 40.0383 21.4336C39.9622 21.3549 39.8855 21.2767 39.8082 21.199C39.739 21.1292 39.6699 21.0593 39.5998 20.9904C39.5215 20.9136 39.4426 20.8373 39.3632 20.7616C39.2923 20.6936 39.2214 20.6257 39.1498 20.5587C39.0694 20.4836 38.9879 20.4096 38.9062 20.3357C38.8559 20.2901 38.8069 20.2434 38.7563 20.1983C42.2773 17.7625 46.3827 16.4821 50.7115 16.4821C62.3547 16.4821 71.8271 25.9789 71.8271 37.6521C71.8274 49.3249 62.355 58.8217 50.7117 58.8217Z" fill="#CBA15E"/>
</svg>
