<svg width="58" height="58" viewBox="0 0 58 58" fill="none" xmlns="http://www.w3.org/2000/svg">
<path d="M44.945 12.961C44.7588 12.9612 44.576 12.9099 44.4159 12.8125C44.2557 12.7151 44.1241 12.5752 44.035 12.4076C43.9697 12.2852 43.9287 12.1509 43.9141 12.0122C43.8995 11.8736 43.9118 11.7333 43.9502 11.5995C43.9885 11.4657 44.0522 11.341 44.1377 11.2325C44.2231 11.124 44.3285 11.0338 44.448 10.9671C44.7315 10.8087 44.9681 10.5749 45.1329 10.2903C45.2978 10.0057 45.3847 9.68081 45.3847 9.34979C45.3847 8.33529 44.5801 7.5096 43.5901 7.5096C43.2776 7.51039 42.9706 7.59447 42.6993 7.75359C42.4279 7.91271 42.2016 8.14141 42.0425 8.41726C41.9736 8.53756 41.8822 8.64272 41.7736 8.72672C41.665 8.81071 41.5413 8.87188 41.4096 8.90671C41.2778 8.94154 41.1407 8.94934 41.006 8.92967C40.8713 8.90999 40.7418 8.86323 40.6248 8.79207C40.1324 8.49502 39.9683 7.84445 40.2586 7.33837C40.9512 6.13428 42.2273 5.38635 43.5901 5.38635C45.7211 5.38635 47.4554 7.16464 47.4554 9.34979C47.4555 10.0623 47.2684 10.7616 46.9137 11.3742C46.559 11.9868 46.0497 12.49 45.4396 12.8309C45.288 12.9161 45.118 12.9608 44.9452 12.961H44.945ZM13.6956 13.2204C13.6096 13.2204 13.5214 13.2095 13.4343 13.1863C11.7322 12.732 10.5443 11.1542 10.5443 9.34979C10.5443 7.16527 12.2784 5.38635 14.4096 5.38635C15.1076 5.38601 15.7927 5.57964 16.3921 5.94666C16.9914 6.31368 17.4825 6.84036 17.8133 7.47072C17.9435 7.71864 17.9724 8.00945 17.8936 8.27921C17.8148 8.54898 17.6348 8.77563 17.3931 8.90934C17.1513 9.04268 16.8678 9.0722 16.6048 8.99144C16.3417 8.91067 16.1207 8.72621 15.9902 8.47853C15.8366 8.18575 15.6086 7.9411 15.3302 7.7706C15.0519 7.6001 14.7338 7.51012 14.4096 7.51022C13.42 7.51022 12.615 8.33529 12.615 9.35042C12.6149 9.75757 12.7464 10.1533 12.989 10.4756C13.2316 10.7979 13.5716 11.0286 13.9558 11.1317C14.0874 11.1667 14.211 11.2281 14.3196 11.3122C14.4281 11.3963 14.5194 11.5015 14.5882 11.6218C14.657 11.7421 14.7021 11.8752 14.7207 12.0133C14.7393 12.1515 14.7312 12.2921 14.6968 12.427C14.639 12.6542 14.5093 12.8552 14.3282 12.9988C14.147 13.1423 13.9246 13.2202 13.6956 13.2204ZM28.9999 57.9999C25.327 57.9999 21.6544 57.0254 18.3785 55.0765C11.9443 51.2473 6.95862 45.5049 3.56083 38.0093C1.23113 32.8707 0 26.9918 0 21.0071V18.0776C0 17.5283 0.409518 17.0698 0.943256 17.0199C0.96813 17.018 3.49379 16.7707 6.58125 15.5443C7.11029 15.3315 7.71334 15.6031 7.92083 16.1505C7.96997 16.2805 7.99366 16.4192 7.99053 16.5586C7.98741 16.698 7.95753 16.8354 7.90262 16.9629C7.8477 17.0905 7.76882 17.2057 7.67048 17.302C7.57213 17.3983 7.45625 17.4738 7.32946 17.5241C5.10289 18.4088 3.16497 18.8231 2.07125 19.0047V21.0071C2.07125 26.6843 3.23549 32.2542 5.43885 37.1144C8.65478 44.208 13.3585 49.6331 19.4183 53.24C25.329 56.7563 32.6719 56.7563 38.5819 53.24C44.9782 49.4338 49.8512 43.6192 53.0667 35.9571C54.9661 31.4298 55.9295 26.4188 55.9295 21.0623V18.9761C54.517 18.6887 51.6423 17.9318 48.4507 16.1031C48.332 16.0351 48.2275 15.9437 48.1432 15.8343C48.0589 15.7249 47.9965 15.5996 47.9595 15.4654C47.9225 15.3313 47.9116 15.1909 47.9274 15.0525C47.9433 14.914 47.9856 14.7801 48.0519 14.6584C48.1182 14.5367 48.2073 14.4296 48.314 14.3431C48.4207 14.2567 48.5429 14.1927 48.6738 14.1547C48.8046 14.1168 48.9414 14.1056 49.0765 14.1219C49.2115 14.1381 49.3421 14.1815 49.4608 14.2495C53.5247 16.5788 57.0487 17.0193 57.0836 17.0235C57.336 17.0532 57.5689 17.1772 57.738 17.3717C57.907 17.5662 58.0003 17.8177 58.0002 18.0783V21.0623C58.0002 26.7094 56.9806 32.0033 54.9685 36.7967C51.5736 44.8865 46.4102 51.037 39.6211 55.0765C36.3453 57.0254 32.6727 57.9999 28.9999 57.9999Z" fill="#CBA15E"/>
<path d="M13.6956 13.3946C13.5523 13.3947 13.4106 13.3644 13.2793 13.3054C13.1481 13.2464 13.0302 13.1601 12.9332 13.052C12.7473 12.8447 12.6492 12.5702 12.6605 12.2889C12.6719 12.0075 12.7916 11.7423 12.9935 11.5514C14.5003 10.1298 15.7041 8.47123 16.575 6.61813V1.06194C16.575 0.780388 16.684 0.510351 16.8781 0.311208C17.0722 0.112066 17.3355 0.000123718 17.61 0H40.3895C40.6642 8.24528e-05 40.9275 0.111991 41.1217 0.311125C41.3159 0.510259 41.4251 0.780318 41.4251 1.06194V6.54861C42.5605 8.35975 43.9395 9.99739 45.5215 11.413C45.7285 11.5981 45.8553 11.8599 45.874 12.1409C45.8928 12.4218 45.802 12.6989 45.6216 12.9112C45.2466 13.354 44.5925 13.3991 44.1606 13.0139C42.3507 11.3943 40.7841 9.50942 39.5115 7.42033C39.4088 7.25141 39.3541 7.0564 39.3537 6.85733V2.12356H18.6458V6.85624C18.6458 7.01114 18.6124 7.16371 18.5492 7.30415C17.5572 9.49413 16.1597 11.4491 14.3965 13.1143C14.2054 13.2945 13.9553 13.3946 13.6956 13.3946ZM44.8058 34.9157C42.4555 34.9157 40.5436 32.9545 40.5436 30.5445C40.5436 28.1345 42.4555 26.1733 44.8058 26.1733C47.1561 26.1733 49.0687 28.1345 49.0687 30.5445C49.0687 32.9545 47.1561 34.9157 44.8058 34.9157ZM44.8058 28.2973C43.5977 28.2973 42.6141 29.3057 42.6141 30.5445C42.6141 31.7844 43.5977 32.793 44.8058 32.793C46.0145 32.793 46.9979 31.7844 46.9979 30.5445C46.9979 29.3051 46.0145 28.2971 44.8058 28.2971V28.2973Z" fill="#CBA15E"/>
<path d="M47.2373 28.3798C45.0494 28.3798 43.2695 26.5547 43.2695 24.3113C43.2695 22.067 45.0494 20.2421 47.2373 20.2421C49.4259 20.2421 51.2056 22.067 51.2056 24.3113C51.2056 26.5547 49.4259 28.3798 47.2373 28.3798ZM47.2373 22.3653C46.1916 22.3653 45.3403 23.2383 45.3403 24.3113C45.3403 25.3835 46.1916 26.2564 47.2373 26.2564C48.2837 26.2564 49.135 25.3835 49.135 24.3113C49.135 23.2383 48.2837 22.3653 47.2373 22.3653ZM13.1937 34.9157C10.8434 34.9157 8.93097 32.9545 8.93097 30.5445C8.93097 28.1344 10.8436 26.1732 13.1937 26.1732C15.5441 26.1732 17.4567 28.1344 17.4567 30.5445C17.4567 32.9545 15.5447 34.9157 13.1937 34.9157ZM13.1937 28.2973C11.9852 28.2973 11.0016 29.3057 11.0016 30.5445C11.0016 31.7843 11.9852 32.7929 13.1937 32.7929C14.4023 32.7929 15.3854 31.7843 15.3854 30.5445C15.3854 29.3051 14.4024 28.2971 13.1937 28.2971V28.2973Z" fill="#CBA15E"/>
<path d="M10.7623 28.3798C8.57424 28.3798 6.7939 26.5547 6.7939 24.3113C6.7939 22.067 8.57424 20.2421 10.7623 20.2421C12.9503 20.2421 14.7307 22.067 14.7307 24.3113C14.7307 26.5547 12.9503 28.3798 10.7623 28.3798ZM10.7623 22.3653C9.71604 22.3653 8.86454 23.2383 8.86454 24.3113C8.86454 25.3835 9.71604 26.2564 10.7623 26.2564C11.8081 26.2564 12.6594 25.3835 12.6594 24.3113C12.6594 23.2383 11.8081 22.3653 10.7623 22.3653ZM47.2373 16.6236C45.3373 16.6236 43.7922 15.0386 43.7922 13.0902C43.7922 11.1425 45.3373 9.55676 47.2373 9.55676C49.1373 9.55676 50.6833 11.1425 50.6833 13.0903C50.6833 15.0386 49.1374 16.6236 47.2373 16.6236ZM47.2373 11.6802C46.4795 11.6802 45.8628 12.3125 45.8628 13.0902C45.8628 13.8672 46.4795 14.5003 47.2373 14.5003C47.9956 14.5003 48.6125 13.8673 48.6125 13.0902C48.6125 12.3125 47.9956 11.6802 47.2373 11.6802ZM10.7623 16.6236C8.86227 16.6236 7.31641 15.0386 7.31641 13.0902C7.31641 11.1425 8.86227 9.55676 10.7623 9.55676C12.6617 9.55676 14.2075 11.1425 14.2075 13.0903C14.2075 15.0386 12.6623 16.6236 10.7623 16.6236ZM10.7623 11.6802C10.0039 11.6802 9.38721 12.3125 9.38721 13.0902C9.38721 13.8672 10.0039 14.5003 10.7623 14.5003C11.52 14.5003 12.1369 13.8673 12.1369 13.0902C12.1369 12.3125 11.52 11.6802 10.7623 11.6802Z" fill="#CBA15E"/>
<path d="M48.4535 22.0409C46.3225 22.0409 44.5884 20.2626 44.5884 18.0775C44.5884 16.8364 45.1387 15.6905 46.0987 14.9335C46.3165 14.762 46.5918 14.6862 46.8641 14.7228C47.1364 14.7594 47.3834 14.9053 47.5508 15.1286C47.8992 15.5933 47.8144 16.2603 47.3606 16.6169C47.1417 16.7883 46.9645 17.0092 46.8428 17.2625C46.7211 17.5158 46.6582 17.7945 46.6591 18.0769C46.6591 19.0914 47.4637 19.9171 48.4537 19.9171C49.4431 19.9171 50.2477 19.092 50.2477 18.0769C50.2484 17.6901 50.13 17.3129 49.9094 16.9991C49.6887 16.6853 49.3771 16.451 49.019 16.3295C48.7582 16.2409 48.5425 16.0496 48.4192 15.7978C48.296 15.5461 48.2753 15.2544 48.3618 14.987C48.542 14.431 49.1279 14.1298 49.6712 14.3138C50.4425 14.5756 51.1136 15.0803 51.5889 15.7559C52.0643 16.4316 52.3198 17.2438 52.3189 18.0769C52.3183 20.2626 50.5849 22.0409 48.4537 22.0409H48.4535ZM9.54647 22.0409C7.41546 22.0409 5.68123 20.2626 5.68123 18.0775C5.68123 15.8916 7.41546 14.1133 9.54647 14.1133C11.6776 14.1133 13.4119 15.8916 13.4119 18.0775C13.4113 20.2626 11.677 22.0409 9.54647 22.0409ZM9.54647 16.2373C8.55711 16.2373 7.75187 17.0628 7.75187 18.0775C7.75187 19.0926 8.5565 19.9177 9.54647 19.9177C10.536 19.9177 11.3406 19.0926 11.3406 18.0775C11.3406 17.0628 10.536 16.2373 9.54647 16.2373ZM16.841 39.9022C14.4907 39.9022 12.5789 37.9417 12.5789 35.5316C12.5789 33.1216 14.4907 31.1606 16.841 31.1606C19.1914 31.1606 21.1046 33.1217 21.1046 35.5316C21.1046 37.9415 19.1914 39.9022 16.841 39.9022ZM16.841 33.2838C15.633 33.2838 14.6494 34.2922 14.6494 35.5316C14.6494 36.771 15.633 37.7795 16.841 37.7795C18.0503 37.7795 19.0332 36.771 19.0332 35.5316C19.0332 34.2922 18.0503 33.2838 16.841 33.2838Z" fill="#CBA15E"/>
<path d="M21.7047 44.0734C19.1221 44.0734 17.0218 41.9197 17.0218 39.2715C17.0218 36.624 19.1221 34.4697 21.7047 34.4697C24.2867 34.4697 26.3877 36.624 26.3877 39.2715C26.3877 41.9197 24.2867 44.0734 21.7047 44.0734ZM21.7047 36.5935C20.2643 36.5935 19.0925 37.7947 19.0925 39.2715C19.0925 40.7484 20.2643 41.9502 21.7047 41.9502C23.1456 41.9502 24.3169 40.7484 24.3169 39.2715C24.3169 37.7947 23.1456 36.5935 21.7047 36.5935ZM41.1585 39.9022C38.8082 39.9022 36.8957 37.9416 36.8957 35.5316C36.8957 33.1216 38.8083 31.1605 41.1585 31.1605C43.5088 31.1605 45.4214 33.1217 45.4214 35.5316C45.4214 37.9415 43.5088 39.9022 41.1585 39.9022ZM41.1585 33.2838C39.95 33.2838 38.9664 34.2922 38.9664 35.5316C38.9664 36.771 39.95 37.7794 41.1585 37.7794C42.367 37.7794 43.3502 36.771 43.3502 35.5316C43.3502 34.2922 42.3672 33.2838 41.1585 33.2838Z" fill="#CBA15E"/>
<path d="M36.295 44.0732C33.7129 44.0732 31.612 41.9195 31.612 39.2714C31.612 36.6238 33.7129 34.4695 36.295 34.4695C38.8775 34.4695 40.9785 36.6238 40.9785 39.2714C40.9779 41.9195 38.8776 44.0732 36.295 44.0732ZM36.295 36.5934C34.8547 36.5934 33.6833 37.7945 33.6833 39.2714C33.6833 40.7482 34.8547 41.95 36.295 41.95C37.7352 41.95 38.9072 40.7482 38.9072 39.2714C38.9072 37.7945 37.7352 36.5934 36.295 36.5934Z" fill="#CBA15E"/>
<path d="M28.9999 45.3206C26.4172 45.3206 24.3169 43.1662 24.3169 40.5179C24.3169 37.8704 26.4172 35.7162 28.9998 35.7162C31.5825 35.7162 33.6834 37.8704 33.6834 40.5181C33.6834 43.1662 31.5826 45.3206 28.9999 45.3206ZM28.9999 37.8401C27.5595 37.8401 26.3877 39.0412 26.3877 40.5187C26.3877 41.9956 27.5595 43.1972 28.9998 43.1972C30.4401 43.1972 31.612 41.9956 31.612 40.5187C31.612 39.0412 30.4402 37.8401 28.9999 37.8401Z" fill="#CBA15E"/>
</svg>
